<?xml version="1.0" standalone="no"?>
<!DOCTYPE svg PUBLIC "-//W3C//DTD SVG 1.1//EN" "http://www.w3.org/Graphics/SVG/1.1/DTD/svg11.dtd" >
<svg xmlns="http://www.w3.org/2000/svg" xmlns:xlink="http://www.w3.org/1999/xlink" version="1.1">
<metadata>
Created by FontForge 20190801 at Fri Jun  8 05:28:07 2001
 By Jimmy Wärting
Copyright (c) Typographer Mediengestaltung, 2001. All rights reserved.
</metadata>
<defs>
<font id="Durwent" horiz-adv-x="467" >
  <font-face 
    font-family="Durwent"
    font-weight="400"
    font-stretch="normal"
    units-per-em="1000"
    panose-1="0 0 4 0 0 0 0 0 0 0"
    ascent="800"
    descent="-200"
    x-height="462"
    cap-height="686"
    bbox="-195 -267 1558 913"
    underline-thickness="20"
    underline-position="-143"
    unicode-range="U+0020-F002"
  />
<missing-glyph horiz-adv-x="500" 
d="M63 0v755h375v-755h-375zM125 63h250v630h-250v-630z" />
    <glyph glyph-name=".notdef" horiz-adv-x="500" 
d="M63 0v755h375v-755h-375zM125 63h250v630h-250v-630z" />
    <glyph glyph-name=".null" horiz-adv-x="0" 
 />
    <glyph glyph-name="nonmarkingreturn" horiz-adv-x="309" 
 />
    <glyph glyph-name="space" unicode=" " horiz-adv-x="309" 
 />
    <glyph glyph-name="exclam" unicode="!" horiz-adv-x="230" 
d="M42 557q-3 36 -26 54q-9 7 -9 15q0 6 7 7q62 19 79 26.5t66 36.5q9 6 18 -3q6 -10 6 -15q0 -13 -15 -34t-16 -33l-27 -442q-34 2 -53 1zM34 53q5 -19 26 -39t40 -24q25 11 69 63q-30 49 -68 61q-17 -2 -37.5 -22.5t-29.5 -38.5z" />
    <glyph glyph-name="quotedbl" unicode="&#x22;" horiz-adv-x="178" 
d="M147 515q-6 -7 -14 -7t-13 8l-15 159q-4 12 6.5 21.5t26.5 9.5q30 0 30 -31q1 -3 -21 -160zM57 515q-7 -10 -13 -10q-7 0 -14 10l-17 163q-3 29 29 29q27 0 29 -32q1 -2 -14 -160z" />
    <glyph glyph-name="numbersign" unicode="#" horiz-adv-x="422" 
d="M134 230h108q16 65 35 160h-107zM372 230l-17 -65h-83q-5 -20 -38 -165l-44 -1q13 55 38 166h-108l-38 -165l-42 -1l38 166l-81 1l18 64h76l36 160h-87l16 61l81 -1l28 140l45 1l-30 -141h107q8 40 26 142h44q0 3 1 3q1 -1 1 -3h-2v-3q-6 -38 -26 -139h83l-14 -60h-79
q-9 -43 -36 -160h87z" />
    <glyph glyph-name="dollar" unicode="$" horiz-adv-x="447" 
d="M163 458q-40 26 -63 26q-14 0 -28 -16.5t-14 -31.5q0 -58 105 -66v88zM203 127q46 7 77 38t31 73q0 34 -3 39q-9 15 -49 15q-15 2 -56 -2v-163zM417 257q0 -82 -69 -128q-56 -39 -144 -46v-82q-1 -2 -10 -2q-10 0 -30 2v80q-55 1 -108 34q-60 37 -60 86q0 61 66 61
q12 0 40 -19q-27 -26 -26 -44q4 -61 88 -72v159q-69 -3 -102 15q-44 24 -42 89q2 59 43 104.5t100 48.5v52q19 2 28 2q10 0 10 -2v-56q5 -2 53 -20q31 -12 53 -12q8 0 33 22q14 -12 14 -18q0 -31 -32.5 -60t-63.5 -29q-25 0 -56 14v-64q81 9 106 9q49 0 79 -36t30 -88z" />
    <glyph glyph-name="percent" unicode="%" horiz-adv-x="629" 
d="M607 165q0 -40 -36.5 -97t-73.5 -68q-13 -4 -32 -4q-54 0 -95.5 48t-41.5 102q0 67 39 129q43 71 106 71q60 0 99 -63q35 -55 35 -118zM565 130q0 43 -48 96.5t-90 53.5q-23 0 -39 -22t-16 -50q0 -44 51 -94.5t95 -50.5q17 0 32 22t15 45zM287 415q0 -40 -36.5 -97
t-73.5 -68q-13 -4 -32 -4q-54 0 -95.5 48t-41.5 102q0 67 39 129q43 71 106 71q60 0 99 -63q35 -55 35 -118zM245 380q0 43 -48 96.5t-90 53.5q-23 0 -39 -22t-16 -50q0 -44 51 -94.5t95 -50.5q17 0 32 22t15 45zM490 593l-313 -592q0 3 -43 3l314 588z" />
    <glyph glyph-name="ampersand" unicode="&#x26;" horiz-adv-x="714" 
d="M684 14q-8 0 -25 17q-7 9 -22 25q-34 33 -107 33q-44 0 -120 -50.5t-120 -50.5q-88 0 -198 102t-110 189q0 93 98 149q25 7 64 22q-19 12 -51 42t-51 42q24 14 31 21q2 1 23 27q52 65 67 77q38 30 101 30q65 0 119 -31l80 -50q52 -29 87 -29q16 0 27 22t24 22
q27 0 27 -25t-27 -39q-22 -11 -49 -11q-58 0 -123 21q-105 34 -135 34q-100 0 -128 -115q4 0 14.5 -12.5t22.5 -14.5q82 0 96 -14q3 -4 0 -36q-3 -37 -13 -52q1 1 -17 2q-4 0 -17 1q-174 11 -191 -136q-5 -43 62 -103q64 -59 109 -59q21 0 52 21l48 33q79 54 161 48l-71 46
q20 23 20 54t-29 81l8 15q29 -18 70 -18q24 0 71 7.5t71 7.5h16q11 0 15 -1l14 -19q-14 -26 -48 -26q-4 1 -19 1q-22 0 -33 -11q-14 -17 -14 -58q0 -45 18 -75q17 -26 56 -52q24 -16 50 -38q16 -17 16 -44z" />
    <glyph glyph-name="quotesingle" unicode="'" horiz-adv-x="104" 
d="M67 515q-7 -10 -13 -10q-7 0 -14 10l-17 163q-3 29 29 29q27 0 29 -32q1 -2 -14 -160z" />
    <glyph glyph-name="parenleft" unicode="(" horiz-adv-x="225" 
d="M149 704l-81 -159q-68 -133 -66 -220q2 -83 30 -162q23 -63 106 -231h37l-51 187q-32 121 -30 197q2 65 34 192q27 96 53 193z" />
    <glyph glyph-name="parenright" unicode=")" horiz-adv-x="225" 
d="M65 704l81 -159q68 -133 66 -220q-2 -83 -30 -162q-23 -63 -106 -231h-37l51 187q32 121 30 197q-1 57 -30 167l-57 218z" />
    <glyph glyph-name="asterisk" unicode="*" horiz-adv-x="327" 
d="M163 523q-28 -15 -57 -58q-12 -13 -29 -13q-31 0 -31 30q0 32 57 36q22 2 52 19q-16 9 -46 19q-19 2 -41 7.5t-22 29.5q0 29 31 29q21 0 44 -34q13 -19 42 -36v11q0 17 -11.5 44t-11.5 37q0 34 31 34q14 0 23 -10.5t9 -23.5q0 -7 -11.5 -36t-11.5 -57q17 11 38 31l20 26
q13 14 28 14q30 0 30 -29q0 -24 -26 -32q-22 -3 -45 -7q-12 -2 -37 -17q24 -15 46 -18q30 -3 40 -7q22 -8 22 -31q0 -28 -28 -28q-22 0 -46 34q-12 17 -42 36v-12q0 -17 11 -44.5t11 -35.5q0 -34 -31 -34q-13 0 -22 10t-9 23q0 11 13 38q10 21 10 55z" />
    <glyph glyph-name="plus" unicode="+" horiz-adv-x="482" 
d="M49 306h136q0 45 2 143l61 -2v-139q86 0 136 1q1 -4 2 -32q1 -30 -1 -32h-137v-149h-61v149h-138q-2 3 -2 15t2 46z" />
    <glyph glyph-name="comma" unicode="," horiz-adv-x="197" 
d="M97 -8q-20 5 -42 29t-27 44q4 10 31.5 36.5t37.5 28.5q36 -12 74 -71q-26 -82 -108 -185q-21 -4 -26 20q40 40 57 98h3z" />
    <glyph glyph-name="hyphen" unicode="-" horiz-adv-x="201" 
d="M5 296q0 7 -14 -40h164q16 0 12 40h-162z" />
    <glyph glyph-name="hyphen" unicode="&#x2010;" horiz-adv-x="201" 
d="M5 296q0 7 -14 -40h164q16 0 12 40h-162z" />
    <glyph glyph-name="period" unicode="." horiz-adv-x="191" 
d="M28 65q5 -20 27 -44t42 -29q11 8 31 25q33 30 40 48q-12 21 -34 41t-37 24q-10 -2 -37.5 -28.5t-31.5 -36.5z" />
    <glyph glyph-name="slash" unicode="/" horiz-adv-x="260" 
d="M233 675l-216 -674h43l219 674h-46z" />
    <glyph glyph-name="zero" unicode="0" horiz-adv-x="552" 
d="M514 279q0 -90 -71 -187q-76 -104 -163 -104q-70 0 -138 69q-61 62 -86 135q0 -1 -1 0q-15 84 -15 118l1 1q5 55 38 139q-1 -1 -1 -2q1 3 3 7l-1 -3l-1 -2l2 3q26 53 83 98q62 49 116 49q53 0 97 -29q137 -91 137 -292zM435 220q0 76 -42 159q-61 122 -174 122
q-51 0 -80 -40q-27 -36 -27 -89q0 -80 69 -179q74 -106 149 -106q46 0 77 45q28 40 28 88z" />
    <glyph glyph-name="one" unicode="1" horiz-adv-x="379" 
d="M297 60l-3 -23q3 0 -7.5 3t-17.5 3q-35 0 -94 -33q-20 -15 -59 -37q-4 -3 -6 8q-1 10 1 13q47 33 47 98v336q0 43 -46 43q-11 0 -28 -3q-2 -1 -4 5v12q0 4 1 7q112 65 140 90q11 5 17 1q4 1 11 -10.5t14 -26.5v-460q0 -4 17 -21q4 -4 11 -4z" />
    <glyph glyph-name="two" unicode="2" horiz-adv-x="453" 
d="M352 10q-9 -5 -37 -13t-38 -8q-14 0 -26 5q-19 10 -24 12q-54 19 -110 19q-27 0 -70 -15q-36 -13 -39 -13q-1 0 -8 3v2q-3 5 -3 8q0 4 44 45q66 61 103 97q32 31 95 93q63 66 63 109q0 59 -37 94.5t-97 35.5q-66 0 -138 -103q-2 1 -6.5 2.5t-7.5 1.5q3 5 3 10
q0 80 53.5 138t132.5 58q82 0 131 -55q46 -53 46 -135q0 -70 -72 -143q-28 -28 -90 -75t-89 -74q35 5 56 5q29 0 72 -14.5t61 -14.5q24 0 34 5q7 3 25 23q5 12 15 30q10 -4 16 -6q0 -19 -22 -68t-36 -59z" />
    <glyph glyph-name="three" unicode="3" horiz-adv-x="485" 
d="M193 -13q-72 0 -130 49q-61 52 -61 123q0 17 10.5 33t24.5 16q23 0 37 -14t14 -35q0 -12 -6 -26q9 -111 130 -111q60 0 98 46q35 44 35 105q0 62 -38.5 98t-100.5 36q-9 0 -29 -2v26q105 3 105 101q0 44 -28.5 70.5t-73.5 26.5q-48 0 -72 -15q-18 -11 -49 -56l-18 5l-2 3
q0 54 54 96q51 39 107 39q82 0 130 -36q55 -40 55 -119q0 -54 -27 -76q-4 -3 -67 -34h13q67 0 105.5 -44t38.5 -114q0 -100 -82 -150q-67 -41 -173 -41z" />
    <glyph glyph-name="four" unicode="4" horiz-adv-x="537" 
d="M419 605q-1 -37 -1 -358q44 -1 75 0q-5 -13 -17 -49q-8 -24 -13 -28q-10 -8 -42 -6l-1 -97q0 -18 40 -27q0 -26 -9 -23q-20 7 -47 6q-28 -1 -45 -9q-3 -1 -37 -18q-17 -9 -40 -9q-1 0 -9.5 -2t-11.5 -1q-4 4 -4 9t4 12q13 10 39 32q16 15 16 47v80h-311q-7 6 2 15
q61 99 91 167q36 82 51 179q63 32 132 77q4 1 5 0q-32 -119 -212 -357l249 1v288q42 33 92 68q1 1 4 3z" />
    <glyph glyph-name="five" unicode="5" horiz-adv-x="490" 
d="M438 222q-4 93 -54 148.5t-128 55.5q-68 0 -146 -57v130q7 0 24 -5.5t25 -5.5q47 0 128 34q92 38 92 77q0 10 -13 10q-19 0 -63.5 -13.5t-68.5 -13.5q-31 0 -75 12q-60 16 -72 18l-23 -15q4 -51 1 -140q-4 -109 -4 -140q0 -14 16 -14q-1 0 48 26t91 26q60 0 95 -47
q30 -43 30 -105q0 -67 -30 -119q-35 -62 -98 -62q-71 0 -100 35q-25 31 -25 101q0 21 -15 35.5t-36 14.5q-15 0 -25 -15.5t-10 -33.5q0 -77 67 -127q61 -46 141 -46q96 0 164 70t64 166z" />
    <glyph glyph-name="six" unicode="6" horiz-adv-x="509" 
d="M219 -7q-97 0 -157 100q-52 86 -52 189q0 130 70 220q76 99 202 99q22 0 60 -15q43 -17 43 -34q0 -12 -13 -38q-14 -29 -23 -29q1 0 -44.5 29.5t-76.5 29.5q-71 0 -114 -65q-39 -57 -39 -131q0 -92 49 -168q56 -87 143 -87q56 0 96.5 38t42.5 94q4 112 -122 112
q-65 0 -65 -80q0 -22 18 -37l-14 -15q-48 20 -48 81q0 55 38 99t92 44q76 0 116 -60q35 -52 35 -132q0 -92 -73 -168t-164 -76z" />
    <glyph glyph-name="seven" unicode="7" horiz-adv-x="522" 
d="M446 514l-140 -185q-91 -130 -91 -192q0 -29 18 -53.5t46 -24.5q12 0 22 3q7 -4 7 -11q0 -30 -28.5 -53t-59.5 -23q-41 0 -73 29.5t-33 70.5q-2 95 74 201q28 39 93 102t96 98q-8 2 -12 2q-6 0 -33.5 -12.5t-50.5 -12.5q-36 0 -84 19q-61 24 -88 24q-47 0 -77 -58
q-4 -4 -10 -4q-5 0 -9.5 5.5t-4.5 16.5q0 48 50.5 92t99.5 44q34 0 101 -21.5t102 -21.5t109 47q17 -8 17 -16q0 -12 -41 -66z" />
    <glyph glyph-name="eight" unicode="8" horiz-adv-x="453" 
d="M200 -8q-69 0 -133 53q-71 58 -71 133q0 51 24.5 96t66.5 71q-42 53 -42 96q0 68 43.5 108.5t112.5 40.5q61 0 113 -32q57 -35 57 -92q0 -67 -64 -110q1 -1 16 -12q39 -24 65.5 -66t26.5 -86q0 -83 -66 -141.5t-149 -58.5zM150 544q-20 2 -32.5 -13.5t-12.5 -39.5
q0 -31 21 -44.5t71 -40.5q57 -31 68 -33q50 -5 50 59q0 39 -65 76q-54 31 -100 36zM269 249q-16 11 -77 43q-66 35 -75 35q-20 0 -39.5 -32t-19.5 -55q0 -65 73 -126q69 -57 134 -57q-2 0 26 6q50 11 59 71q3 22 -29 63q-28 36 -52 52z" />
    <glyph glyph-name="nine" unicode="9" horiz-adv-x="509" 
d="M236 587q111 0 175 -111q49 -85 46 -168q-5 -129 -78 -218q-80 -97 -206 -97q-21 0 -68 17q-52 19 -52 36q0 11 17 37t27 26q-3 0 47 -29.5t84 -29.5q71 0 119 64q44 59 44 132q0 92 -49 168q-56 87 -143 87q-57 0 -101 -37.5t-45 -94.5t36 -86q34 -26 92 -26q66 0 66 80
q0 22 -18 37l14 15q47 -20 47 -81q0 -55 -37.5 -99t-91.5 -44q-77 0 -115 64q-31 52 -31 134q0 91 65 157.5t156 66.5z" />
    <glyph glyph-name="colon" unicode=":" horiz-adv-x="213" 
d="M28 335q5 -20 27 -44t42 -29q11 8 31 25q33 30 40 48q-12 21 -34 41t-37 24q-10 -2 -37.5 -28.5t-31.5 -36.5zM28 65q5 -20 27 -44t42 -29q11 8 31 25q33 30 40 48q-12 21 -34 41t-37 24q-10 -2 -37.5 -28.5t-31.5 -36.5z" />
    <glyph glyph-name="semicolon" unicode=";" horiz-adv-x="210" 
d="M28 335q5 -20 28 -44t43 -29q29 23 39 33q23 23 30 40q-12 21 -34 41t-37 24q-10 -2 -37.5 -28.5t-31.5 -36.5zM97 -8q-20 5 -42 29t-27 44q4 10 31.5 36.5t37.5 28.5q36 -12 74 -71q-26 -82 -108 -185q-21 -4 -26 20q40 40 57 98h3z" />
    <glyph glyph-name="less" unicode="&#x3c;" horiz-adv-x="360" 
d="M18 186v58l295 149v-55l-225 -123l225 -124v-54z" />
    <glyph glyph-name="equal" unicode="=" horiz-adv-x="409" 
d="M45 355v-41h305q2 4 2 21q0 18 -2 20h-305zM45 265v-41h305q2 4 2 21q0 18 -2 20h-305z" />
    <glyph glyph-name="greater" unicode="&#x3e;" horiz-adv-x="334" 
d="M334 186v58l-295 109v-55l226 -83l-226 -84v-54z" />
    <glyph glyph-name="question" unicode="?" horiz-adv-x="413" 
d="M400 419q-3 -62 -52 -99l-90 -69q-49 -37 -52 -89q-24 -1 -37 0q-2 80 21 107q12 14 72 63q38 31 38 52q0 100 -129 100q-59 0 -106 -75h-25q-10 7 -10 16q0 82 47.5 134t129.5 52q83 0 140.5 -55t52.5 -137zM118 65q5 -20 27 -44t42 -29q11 8 31 25q33 30 40 48
q-12 21 -34 41t-37 24q-10 -2 -37.5 -28.5t-31.5 -36.5z" />
    <glyph glyph-name="at" unicode="@" horiz-adv-x="801" 
d="M478 175q1 -1 7 0q8 -3 7 -3q1 0 17 3q69 11 110 99q34 72 34 152q0 90 -69 150q-65 56 -157 56q-135 0 -231.5 -94.5t-96.5 -229.5q0 -124 88 -209.5t212 -85.5q170 0 261 126q6 13 60 97l37 -23q-8 -16 -33 -65q-48 -90 -133 -139t-193 -49q-149 0 -249 97.5
t-100 246.5q0 158 109 268t267 110q119 0 199.5 -75.5t80.5 -193.5q0 -105 -58 -191q-65 -97 -163 -97q-64 0 -77 67q-54 -58 -114 -58q-46 0 -76 51q-26 44 -26 97q0 83 52 155q57 79 137 79q45 0 67 -45q9 31 16 42q45 1 47 0q0 -29 -22 -126l-30 -132q-3 -13 -3 -39
q0 -42 28 -42zM377 469q-66 0 -106 -75q-32 -60 -32 -129q0 -23 17 -51q19 -32 40 -32q62 0 107 84q21 40 28 80l14 84q-27 39 -68 39z" />
    <glyph glyph-name="A" unicode="A" horiz-adv-x="620" 
d="M621 34l-88 -52q-34 16 -81 175q-52 -81 -112 -81q-8 0 -37 4t-38 4q-41 0 -75 -28q6 98 47 231q47 152 100 198l-11 25q-75 -70 -124 -235q-41 -138 -47 -250q-14 -6 -56 -19q-38 -12 -57 -24v14q0 157 96 328q87 155 180 207q-2 34 -51 57q-41 18 -80 18q-25 0 -40 -7
l-5 9q10 6 51 43q32 28 53 29q111 5 184 -125q45 -81 100 -274q53 -188 91 -247zM445 180q-42 179 -98 284q-20 0 -68 -126.5t-44 -188.5q0 1 8 4q19 19 53 19q15 0 46 -5.5t47 -5.5q34 0 56 19z" />
    <glyph glyph-name="B" unicode="B" horiz-adv-x="585" 
d="M562 261q0 -82 -100 -174.5t-183 -92.5q-93 0 -162 19v474q0 121 -68 121q-7 0 -27.5 -6t-22.5 -6q52 88 116 88q37 0 70.5 -28.5t41.5 -64.5l2 -5q24 20 74.5 59.5t81.5 39.5q29 0 136 -40q13 -5 0 -18q-69 -72 -180 -156l18 -2q74 -8 138.5 -71.5t64.5 -136.5zM416 574
q-33 27 -102 27q-71 0 -86 -36v-150q35 21 100 74q70 56 88 85zM465 180q0 98 -61 156.5t-159 58.5h-18v-18q104 -6 161 -62.5t57 -157.5q0 -20 -1 -30l-12 -30q1 1 3 2.5t3 1.5q27 31 27 79zM229 355v-272h101q90 0 90 77q0 61 -36 110q-34 46 -92 71q-45 20 -63 14z" />
    <glyph glyph-name="C" unicode="C" horiz-adv-x="509" 
d="M503 647q-25 -25 -81 -75l-77 21l1 -254l-24 -37l3 31v133v77q-1 44 -1 56q-3 3 -28 7v-261q0 -64 -26 -99q-10 -14 -76 -66l-12 -7q16 48 16 101v201q-97 -61 -97 -161q0 -112 65 -177t178 -65q83 0 135 41l7 -7q-52 -67 -97 -92q-55 -30 -150 -29q-107 2 -170 83
q-59 76 -56 185q3 99 81 173q50 47 103 68l-1 60q0 12 -3 25t-3 14q0 9 66 52.5t80 43.5q10 0 82.5 -18.5t84.5 -23.5z" />
    <glyph glyph-name="D" unicode="D" horiz-adv-x="656" 
d="M634 342q0 -125 -88 -236q-94 -118 -217 -118q-106 0 -194 17q-43 14 -129 36q33 35 89 88q26 -14 40 -14q3 0 9 2q3 5 7.5 14.5t6.5 13.5q8 19 8 39v248q0 42 36 75q14 13 63 42v-278q0 -48 -31 -88q-21 -27 -70 -64l-10 -10q95 -38 212 -38q97 0 114 10q59 35 59 216
q0 201 -185 278q-25 10 -41 9l1 -14v-278q0 -39 -38 -81l-3 1q18 36 18 79l-1 299q-43 9 -94 9q-93 0 -154 -31l-4 7q74 74 129 95q47 18 152 17q140 -2 230 -104q85 -98 85 -241z" />
    <glyph glyph-name="E" unicode="E" horiz-adv-x="574" 
d="M567 150q0 -76 -103 -124q-87 -40 -169 -35q-120 7 -197 74q-82 71 -82 189q0 82 52 142q37 43 123 94v91q22 20 68 61q38 33 75 51q28 -8 83 -23q51 -14 87 -14q26 0 47 7q-2 -41 -40 -67q-34 -23 -77 -23q-22 0 -102 21v-196l94 72q47 -47 83 -86l-91 -87l-86 79l1 -37
q1 -31 -29 -103q8 34 8 74v290l-25 6v-317q0 -41 -31 -94q-34 -59 -71 -59q77 -57 172 -57q104 0 210 78v-7zM191 175v293q-87 -33 -87 -150t73 -172q14 9 14 29z" />
    <glyph glyph-name="F" unicode="F" horiz-adv-x="503" 
d="M455 384l-30 -106q-27 -1 -74 -1q2 -3 50 -62q36 -44 36 -75q0 -27 -25 -49q17 -29 17 -63q0 -63 -77.5 -147.5t-139.5 -84.5q-48 0 -105 47q-41 34 -60 67l85 82q20 -44 67 -80q53 -40 95 -36q52 5 52 60q0 51 -86 172q-105 147 -117 174h-33q-64 0 -107 -38
q14 66 39.5 95t80.5 41q-9 62 -2 83q14 60 112 132t161 72q64 0 113 -46l-92 -80q-8 2 -41 31q-25 22 -67 20q-19 -1 -32 -59q-9 -40 -9 -71q0 -26 15 -79zM275 588q-34 -17 -53 -65q-15 -37 -15 -70q0 -18 20 -69q21 -1 28 0q-15 46 -13 76q4 72 33 128zM410 126q6 2 6 10
q0 34 -94 143q-1 0 -20 2q-17 0 -18 -1q13 -16 46 -59q12 -15 41 -55q15 -27 33 -59q-2 8 6 19z" />
    <glyph glyph-name="G" unicode="G" horiz-adv-x="674" 
d="M647 259q0 -127 -117 -207q-103 -71 -232 -71q-140 0 -220 108q-71 97 -71 242q0 161 112 249q62 49 255 119q67 -79 214 -75q2 -2 -1 -10q-77 -65 -139 -65q-32 0 -68 16q-4 -17 -4 -50q0 -21 3 -62t3 -61q62 60 116 60q76 0 115 -61q34 -52 34 -132zM559 209
q0 76 -27 123q-34 61 -105 54q-27 0 -43 -14q3 -48 3 -61q0 -62 -37 -86l-4 -6l10 23q15 35 10 108q-9 125 -9 159q0 40 3 68l-16 17q-14 -20 -13 -63l2 -102q0 -20 3 -66q3 -42 3 -66q0 -42 -36 -86q-20 -25 -67 -63l-21 -10q25 57 25 114q0 26 -5 73q-5 52 -6 74l-3 107
q-2 72 36 116l-30 -8q-61 -16 -98 -90q-30 -60 -30 -126q0 -185 91 -266q86 -77 273 -77q19 0 36 10l21 12q16 14 26 63q8 38 8 69z" />
    <glyph glyph-name="H" unicode="H" horiz-adv-x="572" 
d="M525 89q0 -56 -1 -63q-3 -24 -86 -100.5t-106 -76.5q-32 0 -76 23q-23 13 -71 39q3 2 43 45q26 28 48 39q10 -4 62 -39q43 -29 59 -29q10 0 26 20q5 32 5 106q0 7 2 69l2 70q0 95 -31 140q-37 54 -128 54q-56 0 -60 -1q-32 -6 -32 -39q0 -2 1 -26t1 -36q0 -98 -53 -185
q-50 -83 -137 -138q41 68 41 220q0 42 -5 125.5t-5 125.5q0 86 48.5 153.5t133.5 103.5q24 6 23 6q28 0 91.5 -16.5t95.5 -16.5q19 0 28 4q-20 -24 -53 -52q-40 -34 -62 -34q-23 0 -134 28q-16 -33 -17 -91q1 23 1 -94v-33q7 4 60 49q34 29 72 29q132 0 181 -83
q34 -58 34 -188v-54v-32q-1 -18 -1 -22zM173 614l-22 4q-23 -17 -28 -56q-2 -15 -2 -66q0 -43 4 -128.5t4 -128.5q0 -53 -19 -133q50 89 50 164q0 31 -2.5 93.5t-2.5 93.5q0 115 18 157z" />
    <glyph glyph-name="I" unicode="I" horiz-adv-x="441" 
d="M380 590q-18 -52 -20 -59q-9 -30 -10 -63q-1 -45 2 -126q3 -67 4 -128q1 -70 -42 -126q-31 -41 -102 -89q-4 -4 -26 -9q-17 -6 -25 -6q-21 0 -40 6q-24 6 -81 30q-36 18 -36 25q0 6 41 45t48 39q11 -9 30 -23q76 -44 110 -43q18 0 22 10q5 21 3 76l-8 209q0 98 14 137
q18 51 116 95zM398 449q0 -27 2 -79.5t2 -79.5q0 -48 -5 -101q-1 -12 -22 -38l9 51l-3 287q-1 55 32 134l-15 -4q-18 -9 -53 -28q-40 -21 -77 -22l-104 26q-63 16 -105 16q-15 0 -38 -17l-6 9q22 21 54 50q39 32 66 33q32 2 109.5 -19t119.5 -21q35 0 75 6l-21 -61
q-20 -58 -20 -142z" />
    <glyph glyph-name="J" unicode="J" horiz-adv-x="423" 
d="M419 657q-56 -72 -51 -253q1 -53 7 -132q5 -70 5 -79q0 -140 -36 -193q14 50 14 171q0 48 -6 143t-6 143q0 90 40 186h-3q-116 -68 -137 -68q-32 0 -96 10l-96 15q-3 0 -19 -7t-20 -7l-3 5q47 44 62 56q43 34 71 34q33 0 98.5 -14.5t98.5 -14.5q16 0 68 12zM358 602
q-41 -59 -41 -171q0 -30 5 -86q5 -60 5 -87l3 -186q1 -67 -46 -126q-43 -54 -108 -84l-7 3q15 19 47 57q21 31 21 70q0 189 -14 362l-79 -76l-85 76l83 81q32 -22 81 -65q-3 15 -3 32q0 55 43.5 121.5t94.5 78.5z" />
    <glyph glyph-name="K" unicode="K" horiz-adv-x="509" 
d="M509 137q-87 -128 -119 -143q-10 -7 -21 -7q-29 0 -25 39q6 61 6 96q0 63 -36 83q-23 13 -95 14q49 53 139 141q-52 34 -128 34q-15 0 -43 -14q-1 -10 0 -81l4 -210l-16 -20q-4 72 -6 161q-3 121 0 260q2 68 22 136q-15 -1 -24 -14q-27 -46 -27 -179q0 -47 1 -80l2 -60
q-1 -71 11 -245q-19 -23 -61 -65q-20 34 -90 95l50 44l-12 326q-4 109 70.5 184t183.5 75q29 0 86 -17q63 -19 74 -39q-18 -10 -47 -36l-44 -38q-17 10 -53 30q-46 23 -98 21q-13 -24 -20 -89q-6 -53 -6 -78v-59q36 36 53 54q29 24 71 24q25 0 69 -16q33 -13 67 -27
q-34 -49 -120 -138h25q99 0 99 -168q0 -14 -2 -40q17 11 49 57z" />
    <glyph glyph-name="L" unicode="L" horiz-adv-x="539" 
d="M353 681q-3 -4 -3 -13q-1 -6 0 -18q1 -8 1 -16q0 -41 2 -84l3 -61q0 -55 -30 -106q-17 -28 -69 -90q-16 -18 -24 -22l6 15q2 8 9 43q9 45 9 67q0 21 -2 75q-2 48 -1 76q1 43 7 72q5 21 44 53q32 26 60 38l4 -8zM520 112q-92 -114 -174 -116q-73 -2 -172 16
q-57 12 -171 34l-3 5q90 83 99 96q25 37 26 135q1 70 1 257q0 32 -12 45q22 20 66 58q58 48 84 43q3 -3 2 -10l-18 -15q-18 -19 -18 -36q-8 -54 -6 -244q1 -136 -90 -209q-8 -26 -8 -37q0 -6 2 -12q56 -19 151 -31q87 -10 155 -8q45 1 86 29z" />
    <glyph glyph-name="M" unicode="M" horiz-adv-x="748" 
d="M742 649q-58 -48 -73 -68q-31 -40 -31 -94l1 -343q4 -15 29 -33.5t50 -25.5l-79 -98q-10 7 -31 23t-32 23q-37 33 -37 74v322q0 46 21 71q8 10 80 73q-60 6 -168 47l-12 -10l-1 -503l-22 -18q1 19 0 513q-2 -2 -34 -27v-513l-98 -87v594q-79 43 -88 43q-1 -5 -34 -35
q0 -30 1 -109l2 -198q0 -25 -1 -70q-1 -48 -1 -69q0 -35 15 -70q-59 -44 -77 -78q-34 63 -94 98l53 49v362q0 47 -17 72q-9 13 -59 49q17 12 90 78q75 -35 82 -91q35 19 112 102l163 -68q9 6 51 39q38 30 46 30q28 0 82 -27t84 -27q12 0 25 3z" />
    <glyph glyph-name="N" unicode="N" horiz-adv-x="533" 
d="M151 561q29 20 30 18v-424q0 -17 26 -60v483q0 17 24 14q53 -7 198 -30q-83 -86 -83 -157q0 -161 2 -305q1 -67 84 -109q14 25 73 93q-41 27 -56 48q-16 25 -16 71v256q0 55 9 85q12 40 48 70q15 12 43 42l-265 34q-39 -35 -113 -99q-1 24 -23 58q-24 38 -46 38
q-4 0 -100 -84q65 -18 65 -108q0 -14 2 -165q1 -106 0 -164q-1 -59 -49 -83q43 -25 83 -100q17 31 96 98q-33 35 -33 77z" />
    <glyph glyph-name="O" unicode="O" horiz-adv-x="671" 
d="M647 372q0 -105 -46 -173q-17 -25 -122 -128q-45 -44 -80 -61q-40 -20 -98 -20q-121 0 -214 102q-90 99 -90 221q0 145 133 263q127 112 276 114q17 -26 87 -59q74 -34 104 -72q50 -63 50 -187zM542 315q0 169 -125 230q-2 1 -17 16q-11 11 -20 10q-4 -44 0 -268
q0 -14 -12.5 -37t-25.5 -28q2 3 9 22q5 14 5 22q-6 246 0 299q0 7 -23 7q-11 -9 -11 -102q0 -30 2.5 -91t2.5 -91q0 -62 -35 -92l-74 -50q2 14 9 49q6 30 6 48l1 263q1 29 40 73q0 6 -19 6q-87 0 -127 -73q-32 -58 -32 -152q0 -115 81 -208q84 -98 197 -95q52 1 85 12
q41 13 65 102q18 67 18 128z" />
    <glyph glyph-name="P" unicode="P" horiz-adv-x="584" 
d="M542 369q0 -124 -65 -219q-54 -79 -169 -160q-14 5 -45 34q-14 14 -44 42l-1 -176l-21 -8l-2 710l45 63q26 37 65 37q121 0 185 -106q52 -88 52 -217zM153 -110l-95 -1l-1 604q0 121 -68 126q20 18 97 71q33 0 52 -43q15 -33 15 -71v-686zM447 346q0 76 -42 161
q-50 100 -117 100q-27 0 -70 -22v-426q0 -64 1 -72l84 70q57 -76 67 -76q29 0 55 118q22 99 22 147z" />
    <glyph glyph-name="Q" unicode="Q" horiz-adv-x="689" 
d="M762 -47l-66 -53q-14 -11 -33 -11q-13 0 -32 7l-275 104q-58 -2 -66 -2q-122 0 -206 102q-78 95 -78 220q0 155 124 260q110 94 272 115q11 -27 37 -42q12 -7 51 -20q80 -27 124 -109q39 -73 39 -164q0 -180 -148 -273q-17 -13 -65 -45l-48 -28q14 2 50 11q32 8 50 7
l211 -83q15 -4 28 -4l20 10zM398 568v-236l-3 -86l-36 -29q13 28 15 49q1 5 1 46v275q-5 7 -19 23q-14 -2 -18 -37q-1 -8 -1 -30v-271q0 -18 -7 -39q-14 -42 -45 -55q-7 -3 -35.5 -19.5t-35.5 -16.5t6 14.5l13 14.5q1 6 1 147q0 -3 -2 90q-1 52 1 90q4 73 101 132
q-118 7 -180 -76q-53 -72 -53 -194q0 -82 52 -166q54 -90 130 -113.5t93 -22.5q13 1 42 3q10 4 39 17q27 32 63 88q9 20 17 81q6 48 6 84q0 74 -34.5 136.5t-100.5 95.5q-1 1 -10 5z" />
    <glyph glyph-name="R" unicode="R" horiz-adv-x="588" 
d="M585 100l-67 -56q-72 -59 -91 -68l1 193q1 195 -140 195q-19 0 -42 -3v-256l-23 -25v517q9 23 36.5 53.5t47.5 37.5q19 3 31 2q18 -2 31 -5q121 -32 152 -76q-91 -96 -170 -167q59 3 96 -17q11 -9 35 -27q45 -30 45 -262q0 -46 -1 -65l49 44q3 3 5 3q7 0 5 -18zM194 61
q-25 -21 -70 -70q-47 59 -98 92q10 8 28.5 24t27.5 24q14 17 14 78l-1 263q0 49 -20 83q-24 43 -70 41v11q21 17 103 76q86 -63 86 -133v-489zM420 543q-24 27 -36 34q-29 17 -77 17q-39 0 -62 -6l1 -208q52 44 174 163z" />
    <glyph glyph-name="S" unicode="S" horiz-adv-x="565" 
d="M527 195q0 -80 -49 -144q-53 -71 -130 -71q-48 0 -140.5 24.5t-140.5 24.5q-18 0 -90 -24q43 57 79 83q47 33 108 33q51 0 121 -17q7 -2 118 -33q4 -2 8 -2q9 0 19 11q0 -24 -1 36t-1 70q1 146 -77 146q-17 0 -76 -75q-20 25 -74 91l-74 -74q-22 -6 -73 45
q-59 59 -62 123t61 151q66 91 128 91q57 0 132 -18l131 -31q13 -2 36 7t34 19l10 -3q-111 -111 -144 -111q-46 0 -134 26t-130 26q-16 0 -25 -22q-15 -34 -13 -65q3 -60 27 -101q31 -50 86 -50q15 0 49 31q29 26 42 45l70 -86q10 11 32 33q31 29 57 29q39 0 64 -43
q22 -37 22 -78v-97z" />
    <glyph glyph-name="T" unicode="T" horiz-adv-x="574" 
d="M445 554v-290q-13 -30 -35 -46h-17q28 33 35 58v279l-34 3l1 -273q0 -23 -46 -63q-42 -37 -68 -47q34 73 34 98v274l-16 -10q-47 -30 -78 -92t-31 -120q0 -121 98 -181q80 -50 209 -50q17 0 49 2l-149 -98l-34 1q-103 3 -180 72q-80 72 -80 173q0 100 60 184
q44 62 141 138q-127 24 -213 24l-14 -3q2 -22 21 -48q17 -22 38 -37q-34 -23 -91 -83q-18 2 -32 31t-14 59q0 33 65 104.5t96 71.5q54 0 160.5 -19t160.5 -19q50 0 116 15q-63 -108 -152 -108z" />
    <glyph glyph-name="U" unicode="U" horiz-adv-x="565" 
d="M194 169q-13 16 -14 23t-3 24v399q0 1 6.5 -9t10.5 -11v-426zM551 632q-74 -48 -88 -88q-7 -21 -7 -124l1 -335l70 55l3 -20l-166 -130q-22 27 -17 107l-133 -112q-56 13 -111 53q-64 47 -64 100l-1 406q0 51 -38 51q-8 0 -12 -1q29 48 98 92q58 -21 55 -116
q-3 -92 0 -377q0 -49 50 -81q43 -27 95 -27q9 0 30.5 15.5t30.5 16.5q-1 11 -1 81q0 71 1 201q-3 9 -3 22q0 85 110 147h-54q-16 0 -70 17t-56 25l109 81q56 -47 77 -54q16 -5 91 -5z" />
    <glyph glyph-name="V" unicode="V" horiz-adv-x="589" 
d="M546 501q0 -126 -99 -284q-88 -140 -201 -231q-39 61 -119 336q-38 133 -80 269q-6 12 -16 12q-6 0 -35 -18l-7 8q14 16 60 46q43 29 67 40q20 2 34 -34q2 -5 15 -52q6 -25 19 -75q41 -150 62 -218q41 -133 78 -212q13 10 22 34q-45 80 -92 253q-24 94 -74 283l16 2
l5 -17q7 -22 13 -42q41 37 64 56q41 34 75 34q79 0 136 -56t57 -134zM444 420q0 77 -37 130q-42 60 -116 60q-41 0 -69 -28q25 -104 62 -229q50 -167 76 -218q48 84 64 133q20 63 20 152z" />
    <glyph glyph-name="W" unicode="W" horiz-adv-x="765" 
d="M747 501q0 -127 -99 -284q-88 -140 -202 -231q-39 61 -119 341l-80 274q-6 12 -16 12q-12 0 -70 -37l138 -482q14 2 59 58l9 -18q-88 -100 -161 -151q-45 170 -97 346l-66 221q-14 49 -35 52q-1 -3 -15 -11l-15 13l122 84q11 2 30 -36q7 -17 23 -51q14 15 79 48
q56 28 84 40q20 2 34 -34q2 -5 15 -52q6 -25 19 -75l62 -223q41 -139 78 -217q21 15 26 29q-47 83 -93 260l-76 291l16 2l5 -17q7 -22 13 -42q95 80 139 80q79 0 136 -56t57 -134zM645 420q0 77 -37 130q-42 60 -116 60q-33 0 -38 -1q-17 -3 -31 -17q26 -107 62 -234
q48 -167 76 -223q48 84 64 133q20 63 20 152z" />
    <glyph glyph-name="X" unicode="X" horiz-adv-x="479" 
d="M486 655q-50 -66 -79 -85q-4 -2 -8 -2q-14 0 -46 16.5t-36 16.5q-51 0 -69 -108v-111q36 0 64 -1q38 -1 53 0q25 2 58 11q-4 -23 -34 -56q-36 -39 -76 -39q-43 0 -66 -1q0 -98 8 -129q14 -54 60 -84q42 -27 100 -27q18 0 34 2q-75 -66 -144 -66q-23 0 -56 15.5t-32 16.5
q-11 -25 -38 -77q-90 -152 -251 -214h-9q121 75 173 211q39 101 41 241v114q-14 2 -27 2q-50 0 -89 -23q5 53 53 83q38 24 70 21l-2 118q-15 51 -49 83q-37 35 -87 38q7 10 45 38q44 33 67 33q35 0 72 -36q30 -30 48 -68q11 6 50 52t60 46q18 0 49 -19.5t56 -19.5
q1 0 16.5 3.5t20.5 4.5z" />
    <glyph glyph-name="Y" unicode="Y" horiz-adv-x="547" 
d="M559 -160q-22 19 -43 27q-13 5 -45 9q-16 2 -24 2q-39 0 -89 -22q-76 -34 -86 -37q-40 -5 -69 -6q-46 -2 -77 18q-36 23 -32 67q1 15 58 109q55 91 53 106q-1 10 -184 499q-1 1 -2 1q-5 0 -23 -15l-6 16q14 14 41 37q43 37 56 38q28 2 43 -27q6 -12 17 -55
q9 -36 140 -358q40 56 96 206q51 137 47 141q-23 -15 -68 -18q-28 -2 -62 17.5t-45 19.5q-10 0 -18 -4q-16 -18 -36 -39q-4 -2 -5 -2q-2 0 -6 6t-8 7q-2 19 50 63.5t74 45.5q19 1 67.5 -17t85.5 -15q33 10 61 32q-26 -65 -77 -187q-94 -225 -130 -288q-20 -36 -148 -257
q-3 -5 -3 -11q0 -14 19 -24q-4 -6 -6 -6q0 -2 64 99q195 308 297 631q9 2 12 -3q2 -5 -1 -18q-37 -174 -176 -439q-125 -237 -172 -274q8 -7 23 -7q5 0 29 5q13 2 28 6q94 49 172 49q44 0 77 -33t33 -77q0 -8 -2 -18z" />
    <glyph glyph-name="Z" unicode="Z" horiz-adv-x="562" 
d="M528 215q0 -117 -81 -210q-85 -97 -200 -97q-90 0 -161 40q-24 13 -51 49q-23 30 -29 45l114 95q16 -9 49 -51q29 -38 53 -47q-10 -14 -43 -39t-44 -43q9 -9 51 -16q34 -5 58 -5q82 0 133 63q46 59 46 143q0 93 -72 153q-67 56 -157 56q-24 0 -82 -14q-65 -16 -73 -31
l-18 18l283 250q-58 -2 -80 -2q-176 0 -210 70q47 36 115 100q0 -25 3 -39q10 -26 122 -26q25 0 54 1q139 6 193 28q7 0 7 -3v-11q-90 -77 -316 -262q23 -2 45 3q15 3 70 3q90 0 155.5 -65.5t65.5 -155.5z" />
    <glyph glyph-name="bracketleft" unicode="[" horiz-adv-x="152" 
d="M34 726l-1 -783h124l1 35h-65v712l62 1q-4 0 1 35h-122z" />
    <glyph glyph-name="backslash" unicode="\" horiz-adv-x="284" 
d="M130 -188l1 1l-4 -1h-11q-53 257 -57 562q-59 -3 -68 -2v5q39 23 63 81q7 16 30 100q17 60 40 87q32 37 91 37q12 0 44 -13q14 -5 48 -20l28 31l9 -6q-37 -84 -60 -123q-33 16 -46 22q-54 23 -79 23t-42 -21.5t-17 -47.5q0 -20 27 -50q2 -2 44 -41q3 -127 -8 -310
q-12 -200 -33 -314z" />
    <glyph glyph-name="bracketright" unicode="]" horiz-adv-x="209" 
d="M150 726v-783h-123l1 41l62 1l1 705h-64q3 0 1 36h122z" />
    <glyph glyph-name="asciicircum" unicode="^" horiz-adv-x="315" 
d="M17 728l153 87q3 0 168 -84l-10 -11l-161 33l-141 -34z" />
    <glyph glyph-name="underscore" unicode="_" horiz-adv-x="495" 
d="M-5 -75v-41h534q2 4 3 20q1 18 -2 21h-535z" />
    <glyph glyph-name="grave" unicode="`" 
d="M171 607l205 -85l-5 -12l-242 35q-11 5 -11 15q0 17 18.5 34t34.5 13z" />
    <glyph glyph-name="a" unicode="a" 
d="M380 -6l-43 43q-24 24 -39 64q-1 -1 -25 -26q-73 -76 -81 -76q-53 0 -98 76q-39 65 -43 124q-4 60 48 130q17 22 91 91q10 9 48 33t45 24q15 0 79 -36q60 -34 77 -49q-5 -11 -31 -36q-28 -28 -36 -42q-18 -31 -18 -77q0 -69 35 -120q27 -39 60 -52q-59 -56 -68 -67
q0 -2 -1 -4zM293 120v1q-3 18 -1 42q7 99 71 169l-147 79q-42 -29 -66 -82q-18 -40 -18 -71q0 -41 45 -101q47 -63 83 -63q11 0 34 26h-1z" />
    <glyph glyph-name="b" unicode="b" horiz-adv-x="458" 
d="M181 -6q-74 63 -163 102q16 10 24 25q12 22 14 29q2 2 2 162v113v47q-1 21 -1 14q0 63 -4 85q-9 50 -43 68l1 4q25 -2 94 22q65 22 101 18v-6q-53 -12 -59 -86q2 -68 0 -151q-1 -37 0 -67q45 34 134 101q6 -6 12 -4q127 -99 127 -207q0 -141 -239 -269zM238 384
q-7 7 -21 7q-17 0 -70 -52v-206l114 -69q27 25 49.5 75t22.5 81q0 95 -95 164z" />
    <glyph glyph-name="c" unicode="c" horiz-adv-x="397" 
d="M377 373q-4 7 -41 39q-50 43 -98 64q-22 -14 -76 -50q-128 -84 -135 -205q-5 -77 59 -154q60 -73 114 -75q20 -1 12 -2q8 2 20 18.5t22 23.5q87 62 124 130q5 14 -20 15q-7 -34 -40.5 -62t-68.5 -28q-62 0 -132 98q-33 46 -33 101q0 32 29.5 69.5t60.5 37.5q42 0 139 -84
z" />
    <glyph glyph-name="d" unicode="d" horiz-adv-x="460" 
d="M196 -4q-59 2 -120 83q-57 78 -59 140q-1 57 44 121q44 61 98 84q-2 2 -28 29q-56 59 -55 101q2 46 36.5 79t80.5 32l11 -4l-13 -8q-31 -19 -33 -65q-1 -39 83 -109l120 -96q64 -67 63 -129q-1 -65 -83 -161q-83 -99 -145 -97zM268 329q-26 25 -85 75q-30 2 -63 -53
q-29 -48 -30 -78q-2 -60 53.5 -129t114.5 -71q33 -1 66 40q31 38 32 72q2 52 -27 89q-3 4 -61 55z" />
    <glyph glyph-name="e" unicode="e" horiz-adv-x="415" 
d="M388 162q-37 -68 -124 -130q-17 -12 -33 -31q-9 -10 -15 -10q-52 1 -121 76q-73 79 -68 154q7 104 135 205q23 15 76 50q64 -36 96 -69q41 -44 52 -104l-257 -135q56 -81 130 -81q35 0 68.5 28t40.5 62q25 -1 20 -15zM112 196l186 101q-60 96 -124 96q-31 0 -60.5 -37.5
t-29.5 -69.5q0 -53 28 -90z" />
    <glyph glyph-name="f" unicode="f" horiz-adv-x="284" 
d="M127 -188h-11q-53 257 -57 562q-59 -3 -68 -2v5q39 23 63 81q7 16 30 100q17 60 40 87q32 37 91 37q12 0 44 -13q14 -5 48 -20l28 31l9 -6q-37 -84 -60 -123q-33 16 -46 22q-54 23 -79 23t-42 -21.5t-17 -47.5q0 -29 22 -58q23 -32 51 -32h87v-67h-98q1 -55 1 -107
q0 -275 -33 -451l1 1z" />
    <glyph glyph-name="g" unicode="g" horiz-adv-x="475" 
d="M307 104v211q-94 78 -133 78q-31 0 -60.5 -37.5t-29.5 -69.5q0 -55 33 -101q70 -98 132 -98q33 0 58 17zM335 413l69 62v-153v-102q-1 -53 -1 -58q0 -24 7.5 -37.5t13.5 -29.5q23 -59 23 -81q0 -85 -86 -149q-81 -60 -168 -60q-65 0 -160 51l82 78q5 -5 23 -20
q14 -12 29 -24q51 -42 114 -42q38 0 72.5 32t34.5 70q0 21 -30 67q-23 36 -46 62q-27 -25 -58 -47q-10 -7 -22 -23.5t-20 -18.5q8 1 -12 2q-54 2 -114 75q-64 77 -59 154q7 120 135 205q23 15 76 50q46 -20 97 -63z" />
    <glyph glyph-name="h" unicode="h" horiz-adv-x="441" 
d="M141 367q1 -1 2 -1t2 1q13 8 50 38q47 39 66 64l1 -2q9 -18 29 -48q60 -66 82 -99q41 -62 41 -119q0 -38 -2 -50q-4 -23 -26.5 -61t-124.5 -139q-95 -95 -134 -124l-13 10q70 68 139 145q80 113 80 177q0 44 -31 99q-28 48 -66 83q-4 7 -31 46l-65 -41l-1 -37l1 -176
q53 -41 61 -41q-2 0 26 22l24 24q3 0 11 -14l-99 -88q-16 -22 -31 -42q-6 7 -52 52q-20 20 -62 48l1 1q20 20 32 37q4 12 6 39q1 13 1 28v339q0 27 -11 57q-15 39 -37 39v7q20 -7 54 -4q15 4 64 20q29 9 73 18l21 1v-10q-1 -1 -17 -5q-33 -8 -51 -46q-7 -16 -10 -43
q-3 -37 -5 -43l1 -162h1z" />
    <glyph glyph-name="i" unicode="i" horiz-adv-x="221" 
d="M75 523v2q0 16 16 58t27 51q16 13 39 13q40 0 40 -27q0 -10 -54 -52.5t-68 -44.5zM10 390l2 2q24 22 74 69l90 -75q-19 -14 -26 -22q-18 -20 -18 -44l-1 -207q0 -10 50 -52q5 4 19 15q6 6 10 -11q-70 -56 -106 -73l-94 80q8 8 39 42v215q-6 31 -39 61z" />
    <glyph glyph-name="j" unicode="j" horiz-adv-x="202" 
d="M75 523v2q0 16 16 58t27 51q16 13 39 13q40 0 40 -27q0 -10 -54 -52.5t-68 -44.5zM132 319l1 -319l-129 -154q-1 4 -6 7q31 40 38 79q6 30 12 69v314q-3 12 -11 30q-13 31 -25 38v1q4 5 41 38q15 17 36 39l84 -72q-29 -23 -41 -70z" />
    <glyph glyph-name="k" unicode="k" horiz-adv-x="395" 
d="M421 -116q-3 0 -16 19l-1 2q-37 46 -82 122q-26 42 -76 126q-12 22 -45 77q-8 -5 -52 -44q-2 -8 -2 -32q3 -24 16 -43.5t25 -19.5q7 0 18 10l8 7l2 2q3 -3 11 -16l-61 -49q-39 -33 -51 -53q-47 74 -98 102q36 43 41 68v385q0 77 -45 96v8q19 -7 54 -4q23 2 65.5 21
t58.5 19l38 -1v-10q-1 -1 -17 -5q-58 -14 -62 -90l-2 -34v-167q5 2 55 51q37 36 63 64q15 -29 45 -61q35 -35 62 -40q3 -1 7 -4q-12 -17 -36 -37q-17 -16 -72 -65l152 -400q0 -4 -3 -4zM242 371q-8 13 -23 35q-3 2 -70 -53v-137l124 110l10 12q-17 12 -41 33z" />
    <glyph glyph-name="l" unicode="l" horiz-adv-x="229" 
d="M112 -8q-33 44 -93 102l22 28q17 23 20 38l-1 387q-1 10 -8 39q-10 43 -42 57v8q21 -7 54 -4q16 2 63 22q44 18 61 18l38 -1v-10q-2 -2 -5 -2l-12 -3q-56 -14 -63 -95q-1 -12 -1 -34v-379q-2 -19 10.5 -44t26.5 -25q7 0 21 14t15 14q3 0 8 -11q-11 -7 -57 -55.5
t-57 -63.5z" />
    <glyph glyph-name="m" unicode="m" horiz-adv-x="626" 
d="M606 91q-29 -20 -111 -76q-7 -5 -27 -16q-1 92 0 334q0 37 -40 58l-78 -51l-1 -293q-30 -15 -90 -51q-2 74 -2 345q0 19 -13 34t-33 15q-6 0 -37 -20q-35 -22 -35 -31l-1 -294q-11 -11 -34 -21q-21 -14 -55 -33v336q-5 18 -11 28q-14 29 -35 32v5q3 2 20 17l28 28l35 34
q14 0 37 -36q13 -19 14 -35q0 -9 7 -27q16 8 68.5 46.5t66.5 52.5q11 3 50 -36q7 -7 18 -49q-1 -5 2 -16l143 103q40 -36 96 -89l2 -2q-35 -26 -35 -56l1 -186q-1 -3 -1 -11q0 -32 28 -32q9 0 20 4q1 -4 3 -11z" />
    <glyph glyph-name="n" unicode="n" horiz-adv-x="417" 
d="M319 48q-10 -9 -38 -34l-9 -6q-5 -4 -13 -9v348q0 22 -5 31t-24 16l-87 -54v-302q0 -17 -28 -27q-15 -4 -47 -14q-4 -3 -14 -6v336q-5 18 -11 28q-14 29 -35 32v5q3 2 20 17l28 28q32 31 37 34q10 0 33 -36q13 -19 14 -35q0 -9 7 -27q30 10 144 101q22 -25 87 -91
q-32 -23 -32 -47v-177q0 -52 36 -52q9 0 19 3q1 -1 1 -4q-21 -15 -83 -58z" />
    <glyph glyph-name="o" unicode="o" horiz-adv-x="439" 
d="M245 18q-6 -4 -24 -20q-6 -5 -10 -6q-45 0 -114 75q-75 81 -70 154q7 109 136 209q22 14 75 46q159 -90 159 -226q0 -126 -152 -232zM174 393q-31 0 -60.5 -37.5t-29.5 -69.5q0 -60 60.5 -132t119.5 -72q32 0 56 33q23 30 23 63q0 56 -56 133q-60 82 -113 82z" />
    <glyph glyph-name="p" unicode="p" horiz-adv-x="475" 
d="M413 205q-11 -39 -78 -123q-70 -88 -102 -88q-11 5 -37 17q-2 1 -54 33q-2 -17 -6 -41q-7 -33 -13 -105q-6 -66 -24 -101h-4q-11 36 -18 89q-7 46 -16 138q-4 26 -12 47q-16 8 -40 21q30 23 38.5 38t8.5 51l1 138q0 6 -14 38q-4 9 -16 16q-17 10 -19 12q-1 -1 -1 0
q41 41 87 80q51 -30 54 -63q-3 -22 -3 -89l156 149q61 -51 85 -86q35 -50 35 -113q0 -28 -8 -58zM328 278q-3 14 -25 47q-30 44 -53 44q-9 0 -57 -46t-48 -52v-121q22 -17 89 -52q59 -31 64 -31q19 0 29 59q8 45 8 76q0 37 -7 76z" />
    <glyph glyph-name="q" unicode="q" horiz-adv-x="454" 
d="M378 270v-257q0 -20 -17 -108q-19 -98 -30 -98q-14 0 -32 112q-15 94 -17 142l-2 49q-7 -3 -75 -61q-12 -12 -44 -39l-15 -12l-4 -4q-19 0 -119 94v233q179 146 183 146q3 0 102 -50q54 -26 113 -56v-5q-27 -22 -35 -37.5t-8 -48.5zM288 310q1 36 -48 61q-42 21 -88 21
q-9 0 -24 -11.5t-16 -17.5l-2 -141q-1 -64 6 -83q3 -9 36.5 -35t49.5 -26q11 0 46.5 35.5t35.5 47.5z" />
    <glyph glyph-name="r" unicode="r" horiz-adv-x="349" 
d="M10 88q35 35 35 51v194q-3 30 -50 44v8q6 6 13 12l29 29q35 35 36 35q28 0 47 -49q10 -34 18 -58q14 5 73 57q49 43 57 48q4 0 41 -41.5t37 -44.5q0 -13 -65 -63q-6 8 -60 72l-87 -66q-2 -46 -2 -50v-121q0 -17 37.5 -43.5t55.5 -26.5q11 0 43 27.5t35 27.5q8 0 8 -16
q0 -7 -153 -124q-5 0 -72 45q-59 40 -76 53zM27 67l-2 1l-4 -7l3 -1z" />
    <glyph glyph-name="s" unicode="s" horiz-adv-x="404" 
d="M252 38q-5 -3 -28 -30q-21 -23 -26 -22q-66 52 -173 75l84 94q-15 7 -41 32q-38 37 -39 73q-1 66 108 153q8 6 17 13q44 33 51 29q18 -8 62 -29q18 -13 55 -25l32 32q9 -6 12 -11q-6 -11 -53 -62q-43 -47 -43 -52q0 -2 22.5 -21t29.5 -24q49 -45 49 -92q0 -34 -44 -78
q-37 -37 -75 -55zM160 388q-24 0 -46.5 -22.5t-22.5 -46.5q0 -40 88 -88q5 -3 88 105q-65 52 -107 52zM207 230q-3 0 -42.5 -42t-44.5 -51q83 -42 129 -65q25 -4 44.5 13.5t19.5 42.5q0 27 -39.5 64.5t-66.5 37.5z" />
    <glyph glyph-name="t" unicode="t" horiz-adv-x="296" 
d="M153 -13q-67 73 -128 103l3 2.5t5 4.5q42 35 42 61v221h-60q62 50 136 217v-141h122v-76h-119l1 -254q3 -13 32 -33.5t44 -22.5l48 41q5 -3 10 -8q0 -5 -60 -54.5t-76 -60.5z" />
    <glyph glyph-name="u" unicode="u" horiz-adv-x="430" 
d="M6 404v11q10 7 53 29t46 22q17 0 36 -28.5t19 -46.5l4 -278q0 -12 17.5 -30t28.5 -18q10 0 40 23q17 13 36 32v306l86 38v-333q0 -25 13 -39q0 -1 27 -22q3 -4 -19.5 -42.5t-27.5 -38.5q-31 0 -56 36q-22 31 -28 65l-141 -105q-35 36 -109 100q40 20 44 48q0 20 2 51
q1 16 1 166q0 19 -20 37.5t-39 18.5q-5 0 -13 -2z" />
    <glyph glyph-name="v" unicode="v" horiz-adv-x="458" 
d="M277 39q-55 -49 -66 -49q-9 0 -180 85q0 1 1 1l1 2l8 9q53 60 53 129q0 93 -86 167q61 75 71 75q7 0 32 -37q11 -18 35 -55q33 17 145 96l86 -55q54 -46 54 -131q0 -70 -65 -150q-21 -26 -89 -87zM236 388q-8 2 -85 -41q7 -13 7 -38q0 -46 -25 -97q-8 -16 -28 -59
l169 -83q34 34 48 54q33 48 33 114q0 57 -31 99q-33 46 -88 51z" />
    <glyph glyph-name="w" unicode="w" horiz-adv-x="600" 
d="M395 2l-120 103q-18 -12 -59 -54l-55 -55l-140 109l1 2q24 19 27 29q2 6 2 24q0 184 -3 190q-1 1 -20 25l-12 15q0 15 59 74q6 0 26.5 -18t23.5 -24t5 -28t8 -30q13 6 67.5 55t55.5 49q15 0 55 -51q14 -18 42 -57l113 111q46 -28 77.5 -82t31.5 -108q0 -156 -185 -279z
M420 388q-6 0 -35 -28t-29 -33v-141q0 -20 4 -32q2 -4 43 -43t52 -39q28 0 46 58q13 41 13 66q0 41 -20 105q-27 87 -74 87zM278 196q-2 28 -2 51q0 17 1 26.5t2 3.5q-3 49 -21 76q-6 9 -22 24t-23 15q-13 0 -47.5 -29t-34.5 -41v-30v-35q-1 -24 -1 -37q0 -49 7 -83
q2 -9 33.5 -36.5t39.5 -27.5q6 0 36 29.5t31 37.5q5 14 3 33z" />
    <glyph glyph-name="x" unicode="x" horiz-adv-x="354" 
d="M277 321q-46 70 -60 70q-7 0 -40.5 -27.5t-33.5 -30.5q0 -76 -1 -191q77 -59 83 -59q7 0 32 32q15 19 18 19q11 0 11 -10q-6 -9 -37.5 -47.5t-56.5 -70.5q-12 4 -41 30t-38 29q-3 -18 -9 -38q-17 -39 -94 -155q-5 2 -5 5l1 2l1 6q8 25 26 89q27 97 27 126v209
q0 61 -44 87q63 66 68 66q23 0 45 -45.5t16 -45.5l120 94q9 -7 74 -88z" />
    <glyph glyph-name="y" unicode="y" horiz-adv-x="432" 
d="M320 157q-38 -64 -119 -208q-12 -23 -45 -82q-6 -10 -14 -18q-6 -2 -9 -2q-7 0 -17 7q14 17 42 59q31 48 31 58q-1 5 -11 34l-16 48q-19 60 -73 213q-26 68 -84 123q4 9 32 44t32 35q9 0 34 -29q23 -24 31 -38l14 -21q2 -1 0 -12q0 -4 6 -6q9 11 24 35q47 74 120 77
q41 2 80.5 -37.5t34.5 -80.5q-5 -42 -93 -199zM245 412q-18 0 -46.5 -31t-28.5 -50q0 -42 28 -122l47 -135q19 26 65 116q53 104 53 125q0 34 -46 67q-42 30 -72 30z" />
    <glyph glyph-name="z" unicode="z" horiz-adv-x="318" 
d="M119 -146q-28 -3 -75 10q-55 15 -55 37q0 6 25 25q22 17 38 23q1 -10 11 -34q23 -38 68 -38q64 10 85 67q11 30 11 86q0 51 -20 90q-24 48 -71 48q-1 0 -23.5 -13.5t-27.5 -15.5q-10 -3 -40 -25l-11 13q7 0 24 11q13 11 48 49q67 71 67 94q0 8 -93 87l-61 -51l-6 7
l145 153q3 -2 6 -5q0 -1 -7.5 -13.5t-7.5 -20.5q0 -16 87 -82l35 17l6 -6q-26 -24 -57 -61q-45 -53 -39 -65q112 -45 112 -147q0 -89 -44 -157q-49 -75 -130 -83z" />
    <glyph glyph-name="braceleft" unicode="{" horiz-adv-x="1603" 
d="M47 549q13 -64 109 -64q90 0 241 31l10 -5q59 17 86 16l53 -1q-29 -35 -93 -60q-84 -33 -102 -43v-8q0 -35 36 -64q44 -28 66 -41l-2 -43q-1 -24 25 -39q15 -8 44 -25l-45 -57l24 -43q-23 -53 -24 -54q0 -71 167 -103q100 -19 227 -19q175 0 371 135q-5 -55 -5 -61
q0 -37 26.5 -66.5t62.5 -29.5q39 0 68 28t37 67l-17 45l146 -32v542l-14 2q-26 0 -63 -16q-48 -20 -62 -23q10 44 10 70q0 38 -26.5 60t-65.5 22q-93 0 -84 -136q-149 143 -401 143h-179q-179 0 -337 -20q-252 -32 -289 -108zM73 548q0 32 52 42l75 15q5 4 12 4h33
q9 -20 13 -70l-10 -10l-20 -3q-1 1 -3 1.5t-3 1.5q-6 0 -28.5 -7.5t-30.5 -7.5q-7 0 -33 1.5t-34.5 1.5t-15.5 10t-7 21zM265 590q0 23 4 28q74 24 162 27q10 -20 10 -47v-40l-3 -3l-108 -14q-1 0 -4.5 2t-5.5 2t-7.5 -4.5t-8.5 -4.5q-1 0 -6 3.5t-7 3.5q-1 0 -4 -2.5
t-5 -2.5q-5 0 -11 22t-6 30zM374 408q0 10 34 18q20 5 43 11q15 6 21 6h4q3 -15 3 -16q0 -23 -19.5 -39t-43.5 -16q-15 0 -28.5 11t-13.5 25zM453 640q0 -1 2 9q20 3 112 3q18 0 251 5q-30 -12 -91 -36q-71 -30 -73 -46q-18 -6 -35 -6q-1 0 -6 2.5t-7 2.5t-7.5 -2.5
t-6.5 -2.5q-4 0 -20 2.5t-21 2.5q-4 0 -18 -3.5t-19 -3.5l-10 4q-3 0 -10 -3.5t-9 -3.5q-32 0 -32 76zM593 335v8q17 18 34 37q21 18 45 18q44 0 87 18q14 6 73 39q4 -30 32.5 -70t32.5 -58q-90 -26 -139 -26q-6 0 -27 -7.5t-28 -7.5q-22 0 -110 49zM472 296q0 4 3 13
q47 7 73 15l143 -71q62 12 78 12h40q-7 -12 -27 -80q-14 -3 -66 -10h-2q-2 0 -47 5q0 5 -16 7q-21 3 -31 13q-51 7 -92 28q-56 28 -56 68zM421 360q42 -4 66 30t19 76q296 186 402 186q112 0 249 -83q151 -91 151 -196l-12 -36l-24 -11l2 -13l-19 1l-7 -1l2 -22l-27 10
l-6 -4v-22l-27 14l-4 -2v-22h-8l-26 19l-7 -21l-21 16l-13 -16l-22 21l-7 -2l-3 -12l-22 19l-12 -12l-18 24l-18 -14l-14 30l-19 -16l-1 33h-10l-18 -14l2 14l-8 17l-12 -12h-7v33h-5l-15 -9v28l-15 3v5q0 20 -15 35v17q-10 17 -10 40q0 7 1 15l-6 6q-9 -7 -66 -47l-9 9
l-17 -14l-8 2l-23 -16l-9 4l-10 -9l-11 5l-3 -1l-7 -8l-11 -1l-55 14q-32 -68 -58 -88q-34 -26 -102 -26q-14 0 -45 16zM498 146q0 17 16.5 29t35.5 12q28 0 82.5 -18t82.5 -18q14 0 42 8.5t40 8.5h5q2 -1 4 -1q-20 -28 -20 -40q0 -5 7.5 -15.5t7.5 -11.5l-5 -11q-9 3 -10 3
q-13 0 -44 -8.5t-47 -8.5q-37 0 -111 21q-86 24 -86 50zM491 53q0 17 13.5 28t31.5 11q27 0 78 -18t78 -18q17 0 49.5 9.5t48.5 9.5q-20 -26 -20 -46q0 -2 4 -13.5t3 -13.5q-64 -29 -96 -29q-34 0 -107 26q-83 30 -83 54zM803 219q0 21 22 40.5t43 19.5q29 0 29 -22
q0 -6 -8 -17q-5 -6 -38 -26t-40 -20q-8 0 -8 25zM804 123q0 21 15.5 37.5t35.5 16.5q13 0 25 -8.5t12 -19.5q0 -18 -24.5 -31.5t-43.5 -13.5q-20 0 -20 19zM1277 545q0 103 52 103q71 0 71 -58q0 -31 -22 -56t-52 -25q-8 0 -11 1l-6 6q-1 5 -16.5 9.5t-15.5 19.5zM785 41
q1 2 6 7q2 9 11 21q14 13 41 13q8 0 16.5 -10t8.5 -19q0 -14 -26.5 -29t-42.5 -15q-7 0 -12 6q3 3 3 8q0 2 -2.5 8.5t-2.5 9.5zM740 -38l5 5q15 1 68 16q45 13 68 14q13 9 30 14l7 -2q14 11 36 9v12l17 -1q13 18 43 16l12 15q14 2 33 11l2 9l6 -1l18 14l19 2l12 15l15 5
l1 12l22 6l8 15q17 7 34 41h-13q-13 0 -39.5 -9.5t-41.5 -9.5q-61 0 -122 37q-69 42 -69 98v7q104 -71 248 -71q84 0 169 88q3 -11 3 -14q0 -46 -18 -63l1 -22q0 -2 -5 -14q-14 -2 -18 -24q-2 -11 -6 -34l-14 15q-7 -24 -23 -62l-15 14q-6 -12 -19 -45l-14 12
q-10 -16 -17 -31l-14 12q-9 -9 -19 -31l-13 9q-16 -25 -31 -30l-8 11l-24 -23l-11 4l-15 -13q-24 0 -31 -13l-9 5l-17 -12l-9 2l-46 -16l-6 2q-33 -14 -101 -14q-4 0 -89 8zM1310 476q13 5 23 5q47 0 73.5 -29t26.5 -79q0 -18 -21 -42.5t-39 -24.5h-15q-8 79 -48 170z
M1289 119q0 5 18 31.5t19 30.5q8 18 15 49q9 40 12 49q26 0 45 -21q12 -14 27 -44q6 -12 6 -18q0 -36 -34.5 -64t-71.5 -28q-36 0 -36 15zM1274 43q0 10 6 28q27 11 42 11q28 0 48.5 -21t20.5 -49q0 -32 -19 -51t-50 -19q-16 0 -35 8q-9 24 -9 74q0 3 -2 10t-2 9z" />
    <glyph glyph-name="bar" unicode="|" horiz-adv-x="158" 
d="M56 676v-675h43v674z" />
    <glyph glyph-name="braceright" unicode="}" horiz-adv-x="1572" 
d="M1541 549q-13 -64 -109 -64q-90 0 -241 31l-10 -5q-59 17 -86 16l-53 -1q29 -35 93 -60q84 -33 102 -43v-8q0 -35 -36 -64q-44 -28 -66 -41l2 -43q1 -24 -25 -39q-14 -8 -44 -25l45 -57l-24 -43q23 -53 24 -54q0 -71 -167 -103q-100 -19 -227 -19q-174 0 -371 135
q5 -55 5 -61q0 -37 -26.5 -66.5t-62.5 -29.5q-37 0 -67 27.5t-38 67.5l17 45l-146 -32v542l14 2q26 0 63 -16q48 -20 62 -23q-10 44 -10 70q0 38 28 61q25 21 64 21q93 0 84 -136q149 143 401 143h179q179 0 337 -20q252 -32 289 -108zM1515 548q0 32 -52 42l-75 15
q-5 4 -12 4h-33q-9 -20 -13 -70l10 -10l20 -3q1 1 3 1.5t3 1.5q8 0 30.5 -7.5t28.5 -7.5q8 0 34.5 1.5t34 1.5t14.5 10t7 21zM1323 590q0 23 -4 28q-73 24 -162 27q-10 -20 -10 -47v-40l3 -3l108 -14q2 0 5.5 2t4.5 2q3 0 8.5 -4.5t7.5 -4.5q1 0 6 3.5t7 3.5t5 -2.5t4 -2.5
q5 0 11 22t6 30zM1214 408q0 10 -34 18q-20 5 -43 11q-15 6 -21 6h-4q-3 -15 -3 -16q0 -23 19.5 -39t43.5 -16q15 0 28.5 11t13.5 25zM1135 640q0 -1 -2 9q-18 3 -112 3q-18 0 -251 5q31 -12 91 -36q71 -31 73 -46q18 -6 35 -6q2 0 7 2.5t6 2.5q2 0 7.5 -2.5t6.5 -2.5
q5 0 21 2.5t20 2.5q5 0 19 -3.5t18 -3.5q-1 0 10 4q3 0 10 -3.5t9 -3.5q32 0 32 76zM995 335v8q-17 18 -34 37q-21 18 -45 18q-44 0 -87 18q-14 6 -73 39q-4 -30 -32.5 -70t-32.5 -58q90 -26 139 -26q7 0 28 -7.5t27 -7.5q22 0 110 49zM1116 296q0 4 -3 13q-47 7 -73 15
l-143 -71q-61 12 -78 12h-40q7 -12 27 -80q14 -3 66 -10h2q2 0 47 5q0 5 16 7q21 3 31 13q51 7 92 28q56 28 56 68zM1167 360q-41 -4 -65 31t-20 75q-295 186 -402 186q-112 0 -249 -83q-151 -91 -151 -196l12 -36l24 -11l-2 -13l19 1l7 -1l-2 -22l27 10l6 -4v-22l27 14
l4 -2v-22h8l26 19l7 -21l21 16l13 -16l22 21l7 -2l3 -12l22 19l12 -12l18 24l18 -14l14 30l19 -16l1 33h10l18 -14l-2 14l8 17l12 -12h7v33h5l15 -9v28l15 3v5q0 20 15 35v17q10 17 10 40q0 7 -1 15l6 6q19 -13 66 -47l9 9l17 -14l8 2l23 -16l9 4l10 -9l11 5l3 -1l7 -8
l11 -1l55 14q32 -68 58 -88q34 -26 102 -26q14 0 45 16zM1090 146q0 17 -16.5 29t-35.5 12q-28 0 -82.5 -18t-82.5 -18q-14 0 -42 8.5t-40 8.5h-4q-2 -1 -5 -1q20 -28 20 -40q0 -5 -7.5 -15.5t-7.5 -11.5l5 -11q9 3 10 3q15 0 45 -8.5t46 -8.5q37 0 111 21q86 24 86 50z
M1097 53q0 17 -13.5 28t-31.5 11q-27 0 -78 -18t-78 -18q-17 0 -49.5 9.5t-48.5 9.5q20 -26 20 -46q0 -2 -4 -13.5t-3 -13.5q64 -29 96 -29q34 0 107 26q83 30 83 54zM785 219q0 21 -22 40.5t-43 19.5q-29 0 -29 -22q0 -6 8 -17q5 -6 38 -26t40 -20q8 0 8 25zM784 123
q0 21 -15.5 37.5t-35.5 16.5q-13 0 -25 -8.5t-12 -19.5q0 -18 26 -32q23 -13 42 -13q20 0 20 19zM311 545q0 103 -52 103q-71 0 -71 -58q0 -31 22 -56t52 -25q8 0 11 1l6 6q1 5 16.5 9.5t15.5 19.5zM803 41q-1 2 -6 7q-2 9 -11 21q-14 13 -41 13q-8 0 -16.5 -10t-8.5 -19
q0 -14 28 -30q25 -14 41 -14q8 0 12 6q-3 3 -3 8q0 2 2.5 8.5t2.5 9.5zM848 -38l-5 5q-23 2 -67.5 15.5t-68.5 14.5q-12 9 -30 14l-7 -2q-13 11 -36 9v12l-17 -1q-13 18 -43 16l-12 15q-14 2 -33 11l-2 9l-6 -1l-18 14l-19 2l-12 15l-15 5l-1 12l-22 6l-8 15q-17 7 -34 41
h13q13 0 39.5 -9.5t41.5 -9.5q61 0 122 37q69 42 69 98v7q-104 -71 -248 -71q-84 0 -169 88q-3 -11 -3 -14q0 -46 18 -63l-1 -22q0 -2 5 -14q14 -2 18 -24q2 -11 6 -34l14 15q8 -24 23 -62l15 14q6 -12 19 -45l14 12q10 -16 17 -31l14 12q9 -9 19 -31l13 9q16 -25 31 -30
l8 11l24 -23l11 4l15 -13q24 0 31 -13l9 5l17 -12l9 2l46 -16l6 2q33 -14 101 -14q4 0 89 8zM278 476q-13 5 -23 5q-47 0 -73.5 -29t-26.5 -79q0 -19 20.5 -43t39.5 -24h15q8 79 48 170zM299 119q0 4 -17.5 30t-19.5 32q-8 18 -15 49q-9 40 -12 49q-26 0 -45 -21
q-12 -14 -27 -44q-6 -12 -6 -18q0 -37 34 -64.5t72 -27.5q36 0 36 15zM314 43q0 10 -6 28q-27 11 -42 11q-28 0 -48.5 -21t-20.5 -49q0 -32 19 -51t50 -19q16 0 35 8q9 24 9 74q0 3 2 10t2 9z" />
    <glyph glyph-name="asciitilde" unicode="~" horiz-adv-x="355" 
d="M42 750l8 -11q27 19 50 23q13 2 55 5q46 -30 108 -46q23 3 62 27q35 21 55 41l-10 16q-26 -26 -69 -26q-22 0 -65.5 22t-77.5 22q-49 0 -116 -73z" />
    <glyph glyph-name="exclamdown" unicode="&#xa1;" horiz-adv-x="205" 
d="M148 -71q3 -36 26 -54q9 -7 9 -15q0 -6 -7 -7q-62 -19 -80.5 -27t-64.5 -36q-3 -2 -6 -2q-7 0 -12.5 7.5t-5.5 12.5q0 -2 14.5 20t16.5 47l27 412q34 -2 53 -1zM156 383q-5 19 -26 39t-40 24q-25 -11 -69 -63q30 -49 68 -61q13 3 34.5 21t32.5 40z" />
    <glyph glyph-name="cent" unicode="&#xa2;" horiz-adv-x="313" 
d="M282 507q0 -13 -29 -33t-43 -20q-15 0 -38 10v-162q3 -1 16 -1q46 0 78 38q15 0 15 -21q0 -39 -36 -66q-32 -24 -73 -28v-63h-34v65q-54 8 -88 50t-34 97q0 54 35 103.5t86 58.5v55h35v-55q4 -1 32 -11q19 -7 33 -7q4 0 16 4t15 4q7 0 14 -9v-9zM138 313l-1 166
q-15 5 -26 5q-20 0 -36 -19.5t-16 -41.5q0 -33 22.5 -63.5t56.5 -46.5z" />
    <glyph glyph-name="sterling" unicode="&#xa3;" horiz-adv-x="544" 
d="M52 326q15 2 60 0q-22 60 -22 109q0 75 63 118q56 39 133 37q38 -1 71.5 -29t69.5 -28q22 0 38 4q-13 -18 -39 -53q-22 -27 -49 -27q-30 0 -72 54q-36 46 -78 46q-26 0 -43.5 -18t-17.5 -46q0 -16 26 -89q8 -22 29 -78h118v-38h-108q19 -80 19 -143q0 -14 -2 -36
q34 -25 82 -29q47 -4 67.5 15t20.5 67q0 33 -61 58q7 10 4 10.5t2 7.5q15 -3 38 -7q97 -25 97 -120q0 -53 -52 -85q-45 -28 -101 -28q-39 0 -62 28q-30 37 -46 45q-82 -79 -153 -79q-24 0 -51.5 19t-27.5 42q0 77 99 77q32 0 68 -9q6 51 -47 167h-73v38zM143 100q-9 3 -47 3
q-21 0 -36.5 -10t-16.5 -25q-3 -38 53 -38q36 0 79 64q-4 1 -32 6z" />
    <glyph glyph-name="currency" unicode="&#xa4;" horiz-adv-x="567" 
d="M1 377l63 1q20 92 150 171q53 32 109 32q24 0 60 -13t46 -13q30 0 75 22q7 -7 7 -28q0 -33 -39 -58q-35 -23 -73 -23q-25 0 -72 12.5t-72 12.5q-54 0 -94.5 -32t-55.5 -83l220 -1v-46h-226q-2 -38 0 -47h226v-47h-208q24 -75 126 -124q32 -15 52 -18q15 -2 66 -2
q98 0 152 84q16 -3 16 -17q0 -38 -51 -94.5t-90 -67.5q-32 -9 -80 -9q-99 0 -171 76q-67 71 -81 172h-55v47h54v47h-54v46z" />
    <glyph glyph-name="yen" unicode="&#xa5;" horiz-adv-x="521" 
d="M126 233v35q7 1 72 1v7q0 17 -17 40q-37 86 -49 106q-37 61 -82 61q-6 0 -16.5 -7t-16.5 -7q-13 0 -19 23l52 52q42 42 49 42q22 0 61 -45q34 -38 47 -65l48 -96h1q5 0 32 52q32 63 56 98q35 52 62 52q11 0 11.5 -6t12.5 -6q2 0 14.5 7t16.5 7q16 0 16 -13
q0 -24 -30 -65.5t-53 -41.5q-2 0 -5 4t-9 4q-19 0 -61 -84q-40 -80 -40 -107q0 -5 2 -7l3 -2h73q2 -3 1 -19q-1 -20 -2 -20h-73v-41q46 0 73 1q2 -3 2 -18q0 -16 -2 -18h-73l-2 -82q-1 -25 22 -56q1 -3 1 -7q0 -8 -7 -15q-21 10 -61 10q-37 0 -53 -10q-4 0 -7.5 6.5
t-1.5 10.5q24 29 24 66v77h-72v36h72v40h-72z" />
    <glyph glyph-name="brokenbar" unicode="&#xa6;" horiz-adv-x="566" 
d="M236 696h91v-356h-91v356zM236 220h91v-355h-91v355z" />
    <glyph glyph-name="section" unicode="&#xa7;" horiz-adv-x="510" 
d="M92 -92l47 80l205 -73q24 31 24 53q0 35 -50 72q-14 11 -111 71q-75 47 -94 63q-65 55 -65 130q0 74 84 147q-35 38 -35 85q0 82 118 185l203 -73l-48 -79l-204 74q-23 -35 -23 -54q0 -45 88 -97q71 -42 94 -57q52 -33 86 -67q51 -50 51 -111q0 -73 -84 -151
q37 -38 37 -83q0 -51 -40 -104q-18 -23 -77 -84zM364 122q48 44 48 81q0 40 -48 83q-24 21 -81 56t-136 93q-48 -45 -48 -84q0 -41 56 -87q32 -27 104 -71t105 -71z" />
    <glyph glyph-name="dieresis" unicode="&#xa8;" horiz-adv-x="409" 
d="M254 553q0 17 11.5 29t27.5 12q17 0 28.5 -12t11.5 -29t-11.5 -29t-27.5 -12q-17 0 -28.5 12t-11.5 29zM110 553q0 17 11.5 29t27.5 12q17 0 28.5 -12t11.5 -29t-11.5 -29t-28.5 -12q-16 0 -27.5 12t-11.5 29z" />
    <glyph glyph-name="copyright" unicode="&#xa9;" horiz-adv-x="802" 
d="M764 332q-1 -157 -112.5 -266t-268.5 -109q-156 0 -267 111t-111 267q0 158 110 266.5t268 108.5q164 0 273.5 -107t107.5 -271zM730 329q0 148 -99.5 247.5t-247.5 99.5q-144 0 -244 -99t-100 -242t100.5 -243.5t243.5 -100.5q142 0 244.5 98.5t102.5 239.5zM534 262
q0 -53 -54 -91q-48 -35 -103 -35q-79 0 -131.5 57t-52.5 136q0 90 53.5 155.5t142.5 65.5q52 0 92 -25l22 20h23v-157l-20 -3q-35 137 -115 137q-103 0 -103 -190q0 -168 106 -168q57 0 95 59q11 25 23 45q0 2 5 14q14 0 17 -3v-17z" />
    <glyph glyph-name="ordfeminine" unicode="&#xaa;" horiz-adv-x="302" 
d="M278 494l9 -15l-79 -52q-31 21 -36 62l-99 -62q-53 38 -53 80q0 55 65 111l-33 78l12 19q20 -7 35 -7q20 0 53 21l64 -24q8 -3 12 -3q11 0 26 19l14 -10q-11 -17 -25 -50q-5 -25 -5 -48v-68q0 -63 18 -63q3 0 14 8q2 0 8 4zM172 595v66l-99 31l28 -63zM172 510v66l-70 34
q-17 -40 -17 -59q0 -40 33 -75z" />
    <glyph glyph-name="guillemotleft" unicode="&#xab;" horiz-adv-x="308" 
d="M294 523q2 0 -164 -208l163 -199l3 29q-108 164 -108 170q0 7 112 182q-9 26 -6 26zM184 523q2 0 -164 -208l163 -199l3 29q-108 164 -108 170q0 7 112 182q-9 26 -6 26z" />
    <glyph glyph-name="logicalnot" unicode="&#xac;" horiz-adv-x="667" 
d="M63 494h540v-328h-90v238h-450v90z" />
    <glyph glyph-name="registered" unicode="&#xae;" horiz-adv-x="325" 
d="M280 564q0 -56 -39 -95t-95 -39t-96 39t-40 95t39 95.5t95 39.5q57 0 96.5 -39t39.5 -96zM268 564q0 51 -36 87t-87 36t-87 -35.5t-36 -86.5q0 -52 36 -87.5t88 -35.5q50 0 86 36t36 86zM219 525q0 -28 -28 -28q-24 0 -28.5 35t-14.5 35h-20v-5q0 -42 2.5 -45.5
t17.5 -7.5v-9h-66v9q18 3 18 6v108q0 13 -19 10q-1 1 -1 4v4h86q15 0 27 -10.5t12 -24.5q0 -24 -30 -36q14 -6 17.5 -12t3.5 -24.5t7 -21.5q6 2 10 18l7 1q-1 1 -1 -6zM173 605q0 28 -29 28h-15v-55h13q31 0 31 27z" />
    <glyph glyph-name="macron" unicode="&#xaf;" horiz-adv-x="417" 
d="M80 569h282v-44h-282v44z" />
    <glyph glyph-name="macron" unicode="&#x2c9;" horiz-adv-x="417" 
d="M80 569h282v-44h-282v44z" />
    <glyph glyph-name="degree" unicode="&#xb0;" horiz-adv-x="400" 
d="M198 676q71 0 120 -49t49 -120t-49.5 -120t-119.5 -49q-71 0 -120 49t-49 120t49 120t120 49zM198 612q-44 0 -74.5 -30.5t-30.5 -74.5t30.5 -74.5t74.5 -30.5q43 0 74 31t31 74q0 44 -30.5 74.5t-74.5 30.5z" />
    <glyph glyph-name="plusminus" unicode="&#xb1;" horiz-adv-x="667" 
d="M63 458h225v225h90v-225h225v-90h-225v-224h-90v224h-225v90zM63 64h540v-90h-540v90z" />
    <glyph glyph-name="twosuperior" unicode="&#xb2;" horiz-adv-x="333" 
d="M46 310l-26 9q11 62 112 132q47 32 62 56q24 37 24 75q0 23 -21 44l-120 -75l-57 52l113 73l171 -70q4 -17 4 -32q0 -53 -37 -88q-23 -22 -78 -46q-61 -25 -82 -41q-17 -13 -34 -36q72 32 137 32q49 0 94 -17l-56 -68q-68 20 -109 20q-49 0 -97 -20z" />
    <glyph glyph-name="threesuperior" unicode="&#xb3;" horiz-adv-x="333" 
d="M83 311l-87 70l61 57l122 -94q26 26 26 64q0 47 -32 71q-20 15 -69 15h-18v25q106 0 106 79q0 36 -24 36q-9 0 -25 -11l-71 -50l-52 56l66 45l203 -55q-17 -91 -81 -110q92 -23 92 -83q0 -105 -217 -115z" />
    <glyph glyph-name="acute" unicode="&#xb4;" horiz-adv-x="426" 
d="M318 607l-205 -85l5 -12l242 35q11 5 11 15q0 16 -19.5 33.5t-33.5 13.5z" />
    <glyph glyph-name="mu" unicode="&#xb5;" horiz-adv-x="500" 
d="M42 462h99v-275q0 -62 9 -91q16 -52 64 -52q28 0 58 26l48 42v350h99v-385q4 -37 26 -37q37 0 44 60h24q-6 -114 -103 -114q-79 0 -90 93q-30 -29 -66 -61q-41 -32 -81 -32q-51 0 -86 42q-1 -10 -1 -23q0 -37 20 -116q8 -32 8 -51q0 -23 -16 -38.5t-39 -15.5
q-54 0 -54 53q0 23 17 81q6 22 14 52q6 44 6 82v410z" />
    <glyph glyph-name="mu" unicode="&#x3bc;" horiz-adv-x="500" 
d="M42 462h99v-275q0 -62 9 -91q16 -52 64 -52q28 0 58 26l48 42v350h99v-385q4 -37 26 -37q37 0 44 60h24q-6 -114 -103 -114q-79 0 -90 93q-30 -29 -66 -61q-41 -32 -81 -32q-51 0 -86 42q-1 -10 -1 -23q0 -37 20 -116q8 -32 8 -51q0 -23 -16 -38.5t-39 -15.5
q-54 0 -54 53q0 23 17 81q6 22 14 52q6 44 6 82v410z" />
    <glyph glyph-name="paragraph" unicode="&#xb6;" horiz-adv-x="471" 
d="M462 -65h-282v30q39 0 49 12.5t10 52.5v283l-31 -1q-86 -3 -137 45t-51 131q0 102 67 142q52 32 161 32h214v-30q-37 0 -47 -12t-10 -54v-536q0 -41 9.5 -53t47.5 -12v-30zM352 -35v667h-63v-667h63z" />
    <glyph glyph-name="periodcentered" unicode="&#xb7;" horiz-adv-x="199" 
d="M28 285q5 -20 27 -44t42 -29q11 8 31 25q33 30 40 48q-12 21 -34 41t-37 24q-10 -2 -37.5 -28.5t-31.5 -36.5z" />
    <glyph glyph-name="periodcentered" unicode="&#x2219;" horiz-adv-x="199" 
d="M28 285q5 -20 27 -44t42 -29q11 8 31 25q33 30 40 48q-12 21 -34 41t-37 24q-10 -2 -37.5 -28.5t-31.5 -36.5z" />
    <glyph glyph-name="cedilla" unicode="&#xb8;" horiz-adv-x="368" 
d="M192 2l-16 -49q28 5 21 5q31 0 54.5 -20.5t23.5 -50.5q0 -19 -20 -35q-5 -5 -38 -26q-43 -6 -79 4l5 21q11 -3 25 -3q63 0 63 47q0 36 -41 36q-15 0 -47 -15l27 84z" />
    <glyph glyph-name="onesuperior" unicode="&#xb9;" horiz-adv-x="333" 
d="M265 371l-82 -58l-76 43l18 19v192q0 53 -13 53q-7 0 -27 -16l-12 19l80 53q37 -11 49 -40q8 -19 8 -65v-182q2 -5 10 -13q2 -1 6 -5l26 18z" />
    <glyph glyph-name="ordmasculine" unicode="&#xba;" horiz-adv-x="281" 
d="M243 696v-222q-46 -13 -99 -45q-73 32 -109 32h-10l-7 13q19 22 19 70v142q53 10 99 44q52 -30 107 -34zM178 484v163q-33 17 -75 23v-159z" />
    <glyph glyph-name="guillemotright" unicode="&#xbb;" horiz-adv-x="351" 
d="M45 523q-2 0 164 -208l-163 -199l-3 29q108 164 108 170q0 7 -112 182q9 26 6 26zM155 523q-2 0 164 -208l-163 -199l-3 29q108 164 108 170q0 7 -112 182q9 26 6 26z" />
    <glyph glyph-name="onequarter" unicode="&#xbc;" horiz-adv-x="1010" 
d="M312 -33h-64l444 712h64zM355 371l-82 -58l-75 43l18 19v192q0 53 -13 53q-7 0 -27 -16l-12 19l80 53q38 -11 49 -40q7 -17 7 -65l1 -182q2 -4 10 -13l5 -5l27 18zM805 0l-72 42l14 20v35h-138l-17 67l169 200q41 -9 55.5 -30t14.5 -66v-111h48l16 -60h-64v-16l16 -23
l24 12l13 -19zM747 157v99q0 18 1 29q-2 15 -9 15t-20 -16l-103 -123z" />
    <glyph glyph-name="onehalf" unicode="&#xbd;" horiz-adv-x="1010" 
d="M312 -33h-64l444 712h64zM355 371l-82 -58l-75 43l18 19v192q0 53 -13 53q-7 0 -27 -16l-12 19l80 53q38 -11 49 -40q7 -17 7 -65l1 -182q2 -4 10 -13l5 -5l27 18zM633 0l-27 9q12 62 113 132q47 33 62 56q24 37 24 74q0 23 -20 45l-121 -74l-58 50l114 74l171 -70
q4 -17 4 -32q0 -54 -36 -88q-24 -23 -79 -46q-61 -25 -82 -41q-17 -13 -34 -36q71 31 137 31q51 0 95 -16l-57 -68q-68 20 -110 20q-48 0 -96 -20z" />
    <glyph glyph-name="threequarters" unicode="&#xbe;" horiz-adv-x="1010" 
d="M312 -33h-64l444 712h64zM173 311l-87 70l61 57l122 -94q26 26 26 64q0 47 -32 71q-20 15 -69 15h-17v25q106 0 106 79q0 36 -24 36q-10 0 -26 -11l-71 -50l-52 56l67 45l202 -55q-17 -91 -81 -110q93 -22 93 -83q0 -104 -218 -115zM805 0l-72 42l14 20v35h-138l-17 67
l169 200q42 -9 57 -32q12 -19 12 -64v-111h49l16 -60h-65v-16l17 -23l23 12l14 -19zM747 157v99q0 18 1 29q-2 15 -9 15t-20 -16l-103 -123z" />
    <glyph glyph-name="questiondown" unicode="&#xbf;" horiz-adv-x="431" 
d="M30 14q3 60 52 101l90 75q49 41 52 91q24 1 37 0q2 -91 -21 -117q-11 -12 -72 -63q-38 -31 -38 -52q0 -100 129 -100q60 0 106 75h25q10 -7 10 -16q0 -82 -48 -134t-129 -52q-84 0 -141 54.5t-52 137.5zM312 378q-4 19 -27.5 44t-41.5 29q-11 -8 -31 -25q-33 -30 -40 -48
q12 -21 34 -41t37 -24q8 1 36.5 28.5t32.5 36.5z" />
    <glyph glyph-name="Agrave" unicode="&#xc0;" horiz-adv-x="620" 
d="M621 34l-88 -52q-34 16 -81 175q-52 -81 -112 -81q-8 0 -37 4t-38 4q-41 0 -75 -28q6 98 47 231q47 152 100 198l-11 25q-75 -70 -124 -235q-41 -138 -47 -250q-14 -6 -56 -19q-38 -12 -57 -24v14q0 157 96 328q87 155 180 207q-2 34 -51 57q-41 18 -80 18q-25 0 -40 -7
l-5 9q10 6 51 43q32 28 53 29q111 5 184 -125q45 -81 100 -274q53 -188 91 -247zM445 180q-42 179 -98 284q-20 0 -68 -126.5t-44 -188.5q0 1 8 4q19 19 53 19q15 0 46 -5.5t47 -5.5q34 0 56 19zM217 836l241 -100l-6 -15l-285 42q-12 5 -12 17q0 20 21.5 40t40.5 16z" />
    <glyph glyph-name="Aacute" unicode="&#xc1;" horiz-adv-x="620" 
d="M621 34l-88 -52q-34 16 -81 175q-52 -81 -112 -81q-8 0 -37 4t-38 4q-41 0 -75 -28q6 98 47 231q47 152 100 198l-11 25q-75 -70 -124 -235q-41 -138 -47 -250q-14 -6 -56 -19q-38 -12 -57 -24v14q0 157 96 328q87 155 180 207q-2 34 -51 57q-41 18 -80 18q-25 0 -40 -7
l-5 9q10 6 51 43q32 28 53 29q111 5 184 -125q45 -81 100 -274q53 -188 91 -247zM445 180q-42 179 -98 284q-20 0 -68 -126.5t-44 -188.5q0 1 8 4q19 19 53 19q15 0 46 -5.5t47 -5.5q34 0 56 19zM402 836l-241 -100l6 -15l285 42q12 5 12 17q0 19 -22.5 39.5t-39.5 16.5z
" />
    <glyph glyph-name="Acircumflex" unicode="&#xc2;" horiz-adv-x="620" 
d="M621 34l-88 -52q-34 16 -81 175q-52 -81 -112 -81q-8 0 -37 4t-38 4q-41 0 -75 -28q6 98 47 231q47 152 100 198l-11 25q-75 -70 -124 -235q-41 -138 -47 -250q-14 -6 -56 -19q-38 -12 -57 -24v14q0 157 96 328q87 155 180 207q-2 34 -51 57q-41 18 -80 18q-25 0 -40 -7
l-5 9q10 6 51 43q32 28 53 29q111 5 184 -125q45 -81 100 -274q53 -188 91 -247zM445 180q-42 179 -98 284q-20 0 -68 -126.5t-44 -188.5q0 1 8 4q19 19 53 19q15 0 46 -5.5t47 -5.5q34 0 56 19zM147 728l153 87q3 0 168 -84l-10 -11l-161 33l-141 -34z" />
    <glyph glyph-name="Atilde" unicode="&#xc3;" horiz-adv-x="620" 
d="M621 34l-88 -52q-34 16 -81 175q-52 -81 -112 -81q-8 0 -37 4t-38 4q-41 0 -75 -28q6 98 47 231q47 152 100 198l-11 25q-75 -70 -124 -235q-41 -138 -47 -250q-14 -6 -56 -19q-38 -12 -57 -24v14q0 157 96 328q87 155 180 207q-2 34 -51 57q-41 18 -80 18q-25 0 -40 -7
l-5 9q10 6 51 43q32 28 53 29q111 5 184 -125q45 -81 100 -274q53 -188 91 -247zM445 180q-42 179 -98 284q-20 0 -68 -126.5t-44 -188.5q0 1 8 4q19 19 53 19q15 0 46 -5.5t47 -5.5q34 0 56 19zM152 750l8 -11q27 19 50 23q13 2 55 5q46 -30 108 -46q23 3 62 27
q35 21 55 41l-10 16q-26 -26 -69 -26q-22 0 -65.5 22t-77.5 22q-49 0 -116 -73z" />
    <glyph glyph-name="Adieresis" unicode="&#xc4;" horiz-adv-x="620" 
d="M621 34l-88 -52q-34 16 -81 175q-52 -81 -112 -81q-8 0 -37 4t-38 4q-41 0 -75 -28q6 98 47 231q47 152 100 198l-11 25q-75 -70 -124 -235q-41 -138 -47 -250q-14 -6 -56 -19q-38 -12 -57 -24v14q0 157 96 328q87 155 180 207q-2 34 -51 57q-41 18 -80 18q-25 0 -40 -7
l-5 9q10 6 51 43q32 28 53 29q111 5 184 -125q45 -81 100 -274q53 -188 91 -247zM445 180q-42 179 -98 284q-20 0 -68 -126.5t-44 -188.5q0 1 8 4q19 19 53 19q15 0 46 -5.5t47 -5.5q34 0 56 19zM335 758q0 20 13.5 34t32.5 14q20 0 33.5 -14t13.5 -34t-13.5 -34t-32.5 -14
q-20 0 -33.5 14t-13.5 34zM165 758q0 20 13.5 34t32.5 14q20 0 33.5 -14t13.5 -34t-13.5 -34t-32.5 -14q-20 0 -33.5 14t-13.5 34z" />
    <glyph glyph-name="Aring" unicode="&#xc5;" horiz-adv-x="620" 
d="M621 34l-88 -52q-34 16 -81 175q-52 -81 -112 -81q-8 0 -37 4t-38 4q-41 0 -75 -28q6 98 47 231q47 152 100 198l-11 25q-75 -70 -124 -235q-41 -138 -47 -250q-14 -6 -56 -19q-38 -12 -57 -24v14q0 157 96 328q87 155 180 207q-2 34 -51 57q-41 18 -80 18q-25 0 -40 -7
l-5 9q10 6 51 43q32 28 53 29q111 5 184 -125q45 -81 100 -274q53 -188 91 -247zM445 180q-42 179 -98 284q-20 0 -68 -126.5t-44 -188.5q0 1 8 4q19 19 53 19q15 0 46 -5.5t47 -5.5q34 0 56 19zM300 843q26 0 44.5 -18.5t18.5 -44.5t-18.5 -44.5t-44.5 -18.5t-44 18.5
t-18 44.5t18 44.5t44 18.5zM300 818q-15 0 -26 -11t-11 -27t11 -27t26 -11q16 0 27 11t11 27t-11 27t-27 11z" />
    <glyph glyph-name="AE" unicode="&#xc6;" horiz-adv-x="1020" 
d="M531 215l2 -8q13 -52 57 -85q6 4 13.5 23.5t7.5 29.5v293q-87 -33 -87 -150q0 -75 7 -103zM448 152q-51 -76 -109 -76q-8 0 -36.5 4t-38.5 4q-40 0 -74 -28q6 98 47 231q47 152 100 198l-11 25q-75 -70 -124 -235q-41 -138 -47 -250q-14 -6 -56 -19q-38 -12 -57 -24v14
q0 157 96 328q87 155 180 207q-2 34 -51 57q-41 18 -80 18q-25 0 -40 -7l-5 9q10 6 51 43q32 28 53 29q91 4 154 -88q45 -65 87 -206q36 76 124 104v91q22 20 68 61q38 33 75 51q28 -8 83 -23q51 -14 87 -14q26 0 47 7q-2 -41 -40 -67q-34 -23 -77 -23q-22 0 -102 21v-196
l94 72q47 -47 83 -86l-91 -87l-86 79l1 -37q1 -31 -29 -103q8 34 8 74v290l-25 6v-317q0 -43 -31 -104q-35 -69 -71 -69q31 -24 82 -32q32 -5 90 -5q94 0 200 78v-7q0 -75 -101 -124q-83 -41 -166 -41q-22 0 -46 3q-178 23 -216 164zM438 209q-42 165 -91 255
q-20 0 -68 -126.5t-44 -188.5q0 1 8 4q19 19 52 19q15 0 46 -5.5t47 -5.5q31 0 54 17q0 3 -1.5 13t-2.5 18z" />
    <glyph glyph-name="Ccedilla" unicode="&#xc7;" horiz-adv-x="509" 
d="M252 -15l-11 -35q30 6 24 6q35 0 63.5 -24t28.5 -59q0 -27 -24 -45q-7 -5 -22 -14.5t-23 -13.5q-17 -2 -33 -2q-32 0 -59 8l6 24q14 -3 31 -3q73 0 73 54q0 43 -49 43q-19 0 -55 -18l25 79q-102 6 -162 88q-55 76 -52 180q3 99 81 173q50 47 103 68l-1 60q0 12 -3 25
t-3 14q0 9 66 52.5t80 43.5q10 0 82.5 -18.5t84.5 -23.5q-25 -25 -81 -75l-77 21l1 -254l-24 -37l3 31v133v77q-1 44 -1 56q-3 3 -28 7v-261q0 -64 -26 -99q-10 -14 -76 -66l-12 -7q16 48 16 101v201q-97 -61 -97 -161q0 -112 65 -177t178 -65q83 0 135 41l7 -7
q-52 -68 -100.5 -94t-133.5 -27z" />
    <glyph glyph-name="Egrave" unicode="&#xc8;" horiz-adv-x="574" 
d="M567 150q0 -76 -103 -124q-87 -40 -169 -35q-120 7 -197 74q-82 71 -82 189q0 82 52 142q37 43 123 94v91q22 20 68 61q38 33 75 51q28 -8 83 -23q51 -14 87 -14q26 0 47 7q-2 -41 -40 -67q-34 -23 -77 -23q-22 0 -102 21v-196l94 72q47 -47 83 -86l-91 -87l-86 79l1 -37
q1 -31 -29 -103q8 34 8 74v290l-25 6v-317q0 -41 -31 -94q-34 -59 -71 -59q77 -57 172 -57q104 0 210 78v-7zM191 175v293q-87 -33 -87 -150t73 -172q14 9 14 29zM237 836l241 -100l-6 -15l-285 42q-12 5 -12 17q0 20 21.5 40t40.5 16z" />
    <glyph glyph-name="Eacute" unicode="&#xc9;" horiz-adv-x="574" 
d="M567 150q0 -76 -103 -124q-87 -40 -169 -35q-120 7 -197 74q-82 71 -82 189q0 82 52 142q37 43 123 94v91q22 20 68 61q38 33 75 51q28 -8 83 -23q51 -14 87 -14q26 0 47 7q-2 -41 -40 -67q-34 -23 -77 -23q-22 0 -102 21v-196l94 72q47 -47 83 -86l-91 -87l-86 79l1 -37
q1 -31 -29 -103q8 34 8 74v290l-25 6v-317q0 -41 -31 -94q-34 -59 -71 -59q77 -57 172 -57q104 0 210 78v-7zM191 175v293q-87 -33 -87 -150t73 -172q14 9 14 29zM432 836l-241 -100l6 -15l285 42q12 5 12 17q0 19 -22.5 39.5t-39.5 16.5z" />
    <glyph glyph-name="Ecircumflex" unicode="&#xca;" horiz-adv-x="574" 
d="M567 150q0 -76 -103 -124q-87 -40 -169 -35q-120 7 -197 74q-82 71 -82 189q0 82 52 142q37 43 123 94v91q22 20 68 61q38 33 75 51q28 -8 83 -23q51 -14 87 -14q26 0 47 7q-2 -41 -40 -67q-34 -23 -77 -23q-22 0 -102 21v-196l94 72q47 -47 83 -86l-91 -87l-86 79l1 -37
q1 -31 -29 -103q8 34 8 74v290l-25 6v-317q0 -41 -31 -94q-34 -59 -71 -59q77 -57 172 -57q104 0 210 78v-7zM191 175v293q-87 -33 -87 -150t73 -172q14 9 14 29zM147 728l153 87q3 0 168 -84l-10 -11l-161 33l-141 -34z" />
    <glyph glyph-name="Edieresis" unicode="&#xcb;" horiz-adv-x="574" 
d="M567 150q0 -76 -103 -124q-87 -40 -169 -35q-120 7 -197 74q-82 71 -82 189q0 82 52 142q37 43 123 94v91q22 20 68 61q38 33 75 51q28 -8 83 -23q51 -14 87 -14q26 0 47 7q-2 -41 -40 -67q-34 -23 -77 -23q-22 0 -102 21v-196l94 72q47 -47 83 -86l-91 -87l-86 79l1 -37
q1 -31 -29 -103q8 34 8 74v290l-25 6v-317q0 -41 -31 -94q-34 -59 -71 -59q77 -57 172 -57q104 0 210 78v-7zM191 175v293q-87 -33 -87 -150t73 -172q14 9 14 29zM355 768q0 20 13.5 34t32.5 14q20 0 33.5 -14t13.5 -34t-13.5 -34t-32.5 -14q-20 0 -33.5 14t-13.5 34z
M185 768q0 20 13.5 34t32.5 14q20 0 33.5 -14t13.5 -34t-13.5 -34t-32.5 -14q-20 0 -33.5 14t-13.5 34z" />
    <glyph glyph-name="Igrave" unicode="&#xcc;" horiz-adv-x="441" 
d="M380 590q-18 -52 -20 -59q-9 -30 -10 -63q-1 -45 2 -126q3 -67 4 -128q1 -70 -42 -126q-31 -41 -102 -89q-4 -4 -26 -9q-17 -6 -25 -6q-21 0 -40 6q-24 6 -81 30q-36 18 -36 25q0 6 41 45t48 39q11 -9 30 -23q76 -44 110 -43q18 0 22 10q5 21 3 76l-8 209q0 98 14 137
q18 51 116 95zM398 449q0 -27 2 -79.5t2 -79.5q0 -48 -5 -101q-1 -12 -22 -38l9 51l-3 287q-1 55 32 134l-15 -4q-18 -9 -53 -28q-40 -21 -77 -22l-104 26q-63 16 -105 16q-15 0 -38 -17l-6 9q22 21 54 50q39 32 66 33q32 2 109.5 -19t119.5 -21q35 0 75 6l-21 -61
q-20 -58 -20 -142zM137 836l241 -100l-6 -15l-285 42q-12 5 -12 17q0 20 21.5 40t40.5 16z" />
    <glyph glyph-name="Iacute" unicode="&#xcd;" horiz-adv-x="441" 
d="M380 590q-18 -52 -20 -59q-9 -30 -10 -63q-1 -45 2 -126q3 -67 4 -128q1 -70 -42 -126q-31 -41 -102 -89q-4 -4 -26 -9q-17 -6 -25 -6q-21 0 -40 6q-24 6 -81 30q-36 18 -36 25q0 6 41 45t48 39q11 -9 30 -23q76 -44 110 -43q18 0 22 10q5 21 3 76l-8 209q0 98 14 137
q18 51 116 95zM398 449q0 -27 2 -79.5t2 -79.5q0 -48 -5 -101q-1 -12 -22 -38l9 51l-3 287q-1 55 32 134l-15 -4q-18 -9 -53 -28q-40 -21 -77 -22l-104 26q-63 16 -105 16q-15 0 -38 -17l-6 9q22 21 54 50q39 32 66 33q32 2 109.5 -19t119.5 -21q35 0 75 6l-21 -61
q-20 -58 -20 -142zM332 836l-241 -100l6 -15l285 42q12 5 12 17q0 19 -22.5 39.5t-39.5 16.5z" />
    <glyph glyph-name="Icircumflex" unicode="&#xce;" horiz-adv-x="441" 
d="M380 590q-18 -52 -20 -59q-9 -30 -10 -63q-1 -45 2 -126q3 -67 4 -128q1 -70 -42 -126q-31 -41 -102 -89q-4 -4 -26 -9q-17 -6 -25 -6q-21 0 -40 6q-24 6 -81 30q-36 18 -36 25q0 6 41 45t48 39q11 -9 30 -23q76 -44 110 -43q18 0 22 10q5 21 3 76l-8 209q0 98 14 137
q18 51 116 95zM398 449q0 -27 2 -79.5t2 -79.5q0 -48 -5 -101q-1 -12 -22 -38l9 51l-3 287q-1 55 32 134l-15 -4q-18 -9 -53 -28q-40 -21 -77 -22l-104 26q-63 16 -105 16q-15 0 -38 -17l-6 9q22 21 54 50q39 32 66 33q32 2 109.5 -19t119.5 -21q35 0 75 6l-21 -61
q-20 -58 -20 -142zM67 728l153 87q3 0 168 -84l-10 -11l-161 33l-141 -34z" />
    <glyph glyph-name="Idieresis" unicode="&#xcf;" horiz-adv-x="441" 
d="M380 590q-18 -52 -20 -59q-9 -30 -10 -63q-1 -45 2 -126q3 -67 4 -128q1 -70 -42 -126q-31 -41 -102 -89q-4 -4 -26 -9q-17 -6 -25 -6q-21 0 -40 6q-24 6 -81 30q-36 18 -36 25q0 6 41 45t48 39q11 -9 30 -23q76 -44 110 -43q18 0 22 10q5 21 3 76l-8 209q0 98 14 137
q18 51 116 95zM398 449q0 -27 2 -79.5t2 -79.5q0 -48 -5 -101q-1 -12 -22 -38l9 51l-3 287q-1 55 32 134l-15 -4q-18 -9 -53 -28q-40 -21 -77 -22q-29 5 -101 25q-59 17 -97 15q-29 -1 -49 -15l-6 9q22 21 54 50q39 32 66 33q32 2 109.5 -19t119.5 -21q35 0 75 6l-21 -61
q-20 -58 -20 -142zM275 758q0 20 13.5 34t32.5 14q20 0 33.5 -14t13.5 -34t-13.5 -34t-32.5 -14q-20 0 -33.5 14t-13.5 34zM105 758q0 20 13.5 34t32.5 14q20 0 33.5 -14t13.5 -34t-13.5 -34t-32.5 -14q-20 0 -33.5 14t-13.5 34z" />
    <glyph glyph-name="Eth" unicode="&#xd0;" horiz-adv-x="656" 
d="M314 344h168v-31l-168 -1v-20q0 -39 -38 -81l-3 1q18 36 18 79v21h-26v-41q0 -48 -31 -88q-21 -27 -70 -64l-10 -10q95 -38 212 -38q97 0 114 10q59 35 59 216q0 201 -185 278q-25 10 -41 9l1 -14v-226zM43 345h124l-1 87q0 42 36 75q14 13 63 42v-205h26l-1 246
q-43 9 -94 9q-93 0 -154 -31l-4 7q74 74 129 95q47 18 152 17q140 -2 230 -104q85 -98 85 -241q0 -125 -88 -236q-94 -118 -217 -118q-106 0 -194 17q-43 14 -129 36q33 35 89 88q26 -14 40 -14q3 0 9 2q3 5 7.5 14.5t6.5 13.5q7 17 8 39q2 53 1 129h-124v32z" />
    <glyph glyph-name="Ntilde" unicode="&#xd1;" horiz-adv-x="539" 
d="M151 561q29 20 30 18v-424q0 -17 26 -60v483q0 17 24 14q53 -7 198 -30q-83 -86 -83 -157q0 -161 2 -305q1 -67 84 -109q14 25 73 93q-41 27 -56 48q-16 25 -16 71v256q0 55 9 85q12 40 48 70q15 12 43 42l-265 34q-39 -35 -113 -99q-1 24 -23 58q-24 38 -46 38
q-4 0 -100 -84q65 -18 65 -108q0 -14 2 -165q1 -106 0 -164q-1 -59 -49 -83q43 -25 83 -100q17 31 96 98q-33 35 -33 77zM102 750l8 -11q27 19 50 23q13 2 55 5q46 -30 108 -46q23 3 62 27q35 21 55 41l-10 16q-26 -26 -69 -26q-22 0 -65.5 22t-77.5 22q-49 0 -116 -73z" />
    <glyph glyph-name="Ograve" unicode="&#xd2;" horiz-adv-x="671" 
d="M647 372q0 -105 -46 -173q-17 -25 -122 -128q-45 -44 -80 -61q-40 -20 -98 -20q-121 0 -214 102q-90 99 -90 221q0 145 133 263q127 112 276 114q17 -26 87 -59q74 -34 104 -72q50 -63 50 -187zM542 315q0 169 -125 230q-2 1 -17 16q-11 11 -20 10q-4 -44 0 -268
q0 -14 -12.5 -37t-25.5 -28q2 3 9 22q5 14 5 22q-6 246 0 299q0 7 -23 7q-11 -9 -11 -102q0 -30 2.5 -91t2.5 -91q0 -62 -35 -92l-74 -50q2 14 9 49q6 30 6 48l1 263q1 29 40 73q0 6 -19 6q-87 0 -127 -73q-32 -58 -32 -152q0 -115 81 -208q84 -98 197 -95q52 1 85 12
q41 13 65 102q18 67 18 128zM237 836l241 -100l-6 -15l-285 42q-12 5 -12 17q0 20 21.5 40t40.5 16z" />
    <glyph glyph-name="Oacute" unicode="&#xd3;" horiz-adv-x="671" 
d="M647 372q0 -105 -46 -173q-17 -25 -122 -128q-45 -44 -80 -61q-40 -20 -98 -20q-121 0 -214 102q-90 99 -90 221q0 145 133 263q127 112 276 114q17 -26 87 -59q74 -34 104 -72q50 -63 50 -187zM542 315q0 169 -125 230q-2 1 -17 16q-11 11 -20 10q-4 -44 0 -268
q0 -14 -12.5 -37t-25.5 -28q2 3 9 22q5 14 5 22q-6 246 0 299q0 7 -23 7q-11 -9 -11 -102q0 -30 2.5 -91t2.5 -91q0 -62 -35 -92l-74 -50q2 14 9 49q6 30 6 48l1 263q1 29 40 73q0 6 -19 6q-87 0 -127 -73q-32 -58 -32 -152q0 -115 81 -208q84 -98 197 -95q52 1 85 12
q41 13 65 102q18 67 18 128zM432 836l-241 -100l6 -15l285 42q12 5 12 17q0 19 -22.5 39.5t-39.5 16.5z" />
    <glyph glyph-name="Ocircumflex" unicode="&#xd4;" horiz-adv-x="671" 
d="M647 372q0 -105 -46 -173q-17 -25 -122 -128q-45 -44 -80 -61q-40 -20 -98 -20q-121 0 -214 102q-90 99 -90 221q0 145 133 263q127 112 276 114q17 -26 87 -59q74 -34 104 -72q50 -63 50 -187zM542 315q0 169 -125 230q-2 1 -17 16q-11 11 -20 10q-4 -44 0 -268
q0 -14 -12.5 -37t-25.5 -28q2 3 9 22q5 14 5 22q-6 246 0 299q0 7 -23 7q-11 -9 -11 -102q0 -30 2.5 -91t2.5 -91q0 -62 -35 -92l-74 -50q2 14 9 49q6 30 6 48l1 263q1 29 40 73q0 6 -19 6q-87 0 -127 -73q-32 -58 -32 -152q0 -115 81 -208q84 -98 197 -95q52 1 85 12
q41 13 65 102q18 67 18 128zM177 728l153 87q3 0 168 -84l-10 -11l-161 33l-141 -34z" />
    <glyph glyph-name="Otilde" unicode="&#xd5;" horiz-adv-x="671" 
d="M647 372q0 -105 -46 -173q-17 -25 -122 -128q-45 -44 -80 -61q-40 -20 -98 -20q-121 0 -214 102q-90 99 -90 221q0 145 133 263q127 112 276 114q17 -26 87 -59q74 -34 104 -72q50 -63 50 -187zM542 315q0 169 -125 230q-2 1 -17 16q-11 11 -20 10q-4 -44 0 -268
q0 -14 -12.5 -37t-25.5 -28q2 3 9 22q5 14 5 22q-6 246 0 299q0 7 -23 7q-11 -9 -11 -102q0 -30 2.5 -91t2.5 -91q0 -62 -35 -92l-74 -50q2 14 9 49q6 30 6 48l1 263q1 29 40 73q0 6 -19 6q-87 0 -127 -73q-32 -58 -32 -152q0 -115 81 -208q84 -98 197 -95q52 1 85 12
q41 13 65 102q18 67 18 128zM172 750l8 -11q27 19 50 23q13 2 55 5q46 -30 108 -46q23 3 62 27q35 21 55 41l-10 16q-26 -26 -69 -26q-22 0 -65.5 22t-77.5 22q-49 0 -116 -73z" />
    <glyph glyph-name="Odieresis" unicode="&#xd6;" horiz-adv-x="671" 
d="M647 372q0 -105 -46 -173q-17 -25 -122 -128q-45 -44 -80 -61q-40 -20 -98 -20q-121 0 -214 102q-90 99 -90 221q0 145 133 263q127 112 276 114q17 -26 87 -59q74 -34 104 -72q50 -63 50 -187zM542 315q0 169 -125 230q-2 1 -17 16q-11 11 -20 10q-4 -44 0 -268
q0 -14 -12.5 -37t-25.5 -28q2 3 9 22q5 14 5 22q-6 246 0 299q0 7 -23 7q-11 -9 -11 -102q0 -30 2.5 -91t2.5 -91q0 -62 -35 -92l-74 -50q2 14 9 49q6 30 6 48l1 263q1 29 40 73q0 6 -19 6q-87 0 -127 -73q-32 -58 -32 -152q0 -115 81 -208q84 -98 197 -95q52 1 85 12
q41 13 65 102q18 67 18 128zM385 768q0 20 13.5 34t32.5 14q20 0 33.5 -14t13.5 -34t-13.5 -34t-32.5 -14q-20 0 -33.5 14t-13.5 34zM215 768q0 20 13.5 34t32.5 14q20 0 33.5 -14t13.5 -34t-13.5 -34t-32.5 -14q-20 0 -33.5 14t-13.5 34z" />
    <glyph glyph-name="multiply" unicode="&#xd7;" horiz-adv-x="667" 
d="M82 516l63 64l189 -190l188 190l64 -64l-188 -189l186 -187l-63 -63l-187 186l-188 -186l-63 63l188 187z" />
    <glyph glyph-name="Oslash" unicode="&#xd8;" horiz-adv-x="680" 
d="M376 457l60 77q-5 3 -19 11q-2 1 -17 16q-11 11 -20 10q-4 -28 -4 -114zM324 391l27 35q0 105 5 155q0 7 -23 7q-10 -9 -10 -115q0 -36 1 -82zM164 185l69 89l1 248q1 29 40 73q0 6 -19 6q-87 0 -127 -73q-32 -58 -32 -152q0 -99 68 -191zM461 517l-84 -108q2 -52 3 -106
q0 -14 -12.5 -37t-25.5 -28q2 3 9 22q5 14 5 22q-2 54 -4 96l-26 -34q1 -12 1 -40q0 -62 -35 -92l-74 -50q10 43 11 58l-45 -59q84 -90 190 -88q51 1 85 12q41 13 65 102q18 67 18 128q0 139 -81 202zM578 668l-44 -57q113 -65 113 -239q0 -105 -46 -173q-17 -25 -122 -128
q-45 -44 -80 -61q-40 -20 -98 -20q-104 0 -189 79l-68 -87l-23 19l69 89q-93 101 -93 223q0 145 133 263q127 112 276 114q16 -25 43 -38q3 -3 57 -28l49 63z" />
    <glyph glyph-name="Ugrave" unicode="&#xd9;" horiz-adv-x="565" 
d="M194 169q-13 16 -14 23t-3 24v399q0 1 6.5 -9t10.5 -11v-426zM551 632q-74 -48 -88 -88q-7 -21 -7 -124l1 -335l70 55l3 -20l-166 -130q-22 27 -17 107l-133 -112q-56 13 -111 53q-64 47 -64 100l-1 406q0 51 -38 51q-8 0 -12 -1q29 48 98 92q58 -21 55 -116
q-3 -92 0 -377q0 -49 50 -81q43 -27 95 -27q9 0 30.5 15.5t30.5 16.5q-1 11 -1 81q0 71 1 201q-3 9 -3 22q0 85 110 147h-54q-16 0 -70 17t-56 25l109 81q56 -47 77 -54q16 -5 91 -5zM177 836l241 -100l-6 -15l-285 42q-12 5 -12 17q0 20 21.5 40t40.5 16z" />
    <glyph glyph-name="Uacute" unicode="&#xda;" horiz-adv-x="565" 
d="M194 169q-13 16 -14 23t-3 24v399q0 1 6.5 -9t10.5 -11v-426zM551 632q-74 -48 -88 -88q-7 -21 -7 -124l1 -335l70 55l3 -20l-166 -130q-22 27 -17 107l-133 -112q-56 13 -111 53q-64 47 -64 100l-1 406q0 51 -38 51q-8 0 -12 -1q29 48 98 92q58 -21 55 -116
q-3 -92 0 -377q0 -49 50 -81q43 -27 95 -27q9 0 30.5 15.5t30.5 16.5q-1 11 -1 81q0 71 1 201q-3 9 -3 22q0 85 110 147h-54q-16 0 -70 17t-56 25l109 81q56 -47 77 -54q16 -5 91 -5zM362 836l-241 -100l6 -15l285 42q12 5 12 17q0 19 -22.5 39.5t-39.5 16.5z" />
    <glyph glyph-name="Ucircumflex" unicode="&#xdb;" horiz-adv-x="565" 
d="M194 169q-13 16 -14 23t-3 24v399q0 1 6.5 -9t10.5 -11v-426zM551 632q-74 -48 -88 -88q-7 -21 -7 -124l1 -335l70 55l3 -20l-166 -130q-22 27 -17 107l-133 -112q-56 13 -111 53q-64 47 -64 100l-1 406q0 51 -38 51q-8 0 -12 -1q29 48 98 92q58 -21 55 -116
q-3 -92 0 -377q0 -49 50 -81q43 -27 95 -27q9 0 30.5 15.5t30.5 16.5q-1 11 -1 81q0 71 1 201q-3 9 -3 22q0 85 110 147h-54q-16 0 -70 17t-56 25l109 81q56 -47 77 -54q16 -5 91 -5zM127 728l153 87q3 0 168 -84l-10 -11l-161 33l-141 -34z" />
    <glyph glyph-name="Udieresis" unicode="&#xdc;" horiz-adv-x="565" 
d="M194 169q-13 16 -14 23t-3 24v399q0 1 6.5 -9t10.5 -11v-426zM551 632q-74 -48 -88 -88q-7 -21 -7 -124l1 -335l70 55l3 -20l-166 -130q-22 27 -17 107l-133 -112q-56 13 -111 53q-64 47 -64 100l-1 406q0 51 -38 51q-8 0 -12 -1q29 48 98 92q58 -21 55 -116
q-3 -92 0 -377q0 -49 50 -81q43 -27 95 -27q9 0 30.5 15.5t30.5 16.5q-1 11 -1 81q0 71 1 201q-3 9 -3 22q0 85 110 147h-54q-16 0 -70 17t-56 25l109 81q56 -47 77 -54q16 -5 91 -5zM315 768q0 20 13.5 34t32.5 14q20 0 33.5 -14t13.5 -34t-13.5 -34t-32.5 -14
q-20 0 -33.5 14t-13.5 34zM145 768q0 20 13.5 34t32.5 14q20 0 33.5 -14t13.5 -34t-13.5 -34t-32.5 -14q-20 0 -33.5 14t-13.5 34z" />
    <glyph glyph-name="Yacute" unicode="&#xdd;" horiz-adv-x="547" 
d="M559 -160q-22 19 -43 27q-13 5 -45 9q-16 2 -24 2q-39 0 -89 -22q-76 -34 -86 -37q-40 -5 -69 -6q-46 -2 -77 18q-36 23 -32 67q1 15 58 109q55 91 53 106q-1 10 -184 499q-1 1 -2 1q-5 0 -23 -15l-6 16q14 14 41 37q43 37 56 38q28 2 43 -27q6 -12 17 -55
q9 -36 140 -358q40 56 96 206q51 137 47 141q-23 -15 -68 -18q-28 -2 -62 17.5t-45 19.5q-10 0 -18 -4q-16 -18 -36 -39q-4 -2 -5 -2q-2 0 -6 6t-8 7q-2 19 50 63.5t74 45.5q19 1 67.5 -17t85.5 -15q33 10 61 32q-26 -65 -77 -187q-94 -225 -130 -288q-20 -36 -148 -257
q-3 -5 -3 -11q0 -14 19 -24q-4 -6 -6 -6q0 -2 64 99q195 308 297 631q9 2 12 -3q2 -5 -1 -18q-37 -174 -176 -439q-125 -237 -172 -274q8 -7 23 -7q5 0 29 5q13 2 28 6q94 49 172 49q44 0 77 -33t33 -77q0 -8 -2 -18zM370 845l-235 -98l5 -15l279 41q12 5 12 17
q0 20 -21 39.5t-40 15.5z" />
    <glyph glyph-name="Thorn" unicode="&#xde;" horiz-adv-x="586" 
d="M550 228q0 -81 -35 -125q-26 -32 -90 -60q-95 -41 -117 -53q-13 5 -91 74l-1 -175l-21 -1v531l45 63q26 37 65 37q122 0 187 -87q58 -78 58 -204zM153 -110l-95 -1l-1 604q0 121 -68 126q20 18 97 71q33 0 52 -43q15 -33 15 -71v-686zM464 174q0 73 -50 161
q-56 99 -126 99q-31 0 -73 -20v-320q26 17 88 63l21 -54q17 -45 29 -42q32 7 71.5 45t39.5 68z" />
    <glyph glyph-name="germandbls" unicode="&#xdf;" horiz-adv-x="497" 
d="M471 44q0 -80 -43 -148q-50 -79 -120 -79h-42q-19 0 -52 15q-37 16 -37 31q0 8 28 29t40 23q11 -30 13 -35q10 -21 23 -27q11 -3 38 4q38 10 66 49t28 79q0 47 -37 90t-83 43q-17 0 -37 -6q-4 -2 -37 -25l-18 28l79 88q72 81 72 105q0 8 -91 87l-42 -7q-31 -5 -27 -21
q-4 -111 -12 -248q-16 -259 -35 -309q-6 0 -7 -1q-1 0 -7 1q-42 157 -67 560q-30 -1 -47 -1q-16 0 -20 1l2 9q48 28 73 111q35 115 42 132q35 63 111 63q22 0 91 -32l28 31l13 -10q-25 -56 -62 -126q29 0 -36 22.5t-82 22.5q-24 0 -40.5 -19.5t-16.5 -44.5q0 -29 17 -58
q19 -35 46 -31l36 5l38 10q27 7 45 22q10 10 32 28q3 2 10.5 -2.5t7.5 -7.5q0 -1 -10 -14t-10 -19q0 -16 54 -60q11 -12 26 -12q7 2 40 10l9 -10q-27 -52 -41 -77q-45 -79 -76 -109q60 -11 96 -62q31 -45 31 -98z" />
    <glyph glyph-name="agrave" unicode="&#xe0;" 
d="M373 -6l-43 43q-24 24 -39 64q-1 -1 -25 -26q-73 -76 -82 -76q-52 0 -97 76q-39 66 -43 124q-4 61 48 130q23 31 90 91q11 10 48.5 33.5t45.5 23.5q15 0 79 -36q60 -34 77 -49q-5 -11 -31 -36q-28 -28 -36 -42q-18 -31 -18 -77q0 -69 35 -120q27 -39 60 -52
q-59 -56 -68 -67q0 -2 -1 -4zM286 120v1q-3 18 -1 42q7 99 70 169l-146 79q-42 -29 -66 -82q-18 -40 -18 -71q0 -41 45 -101q47 -63 83 -63q11 0 34 26h-1zM171 607l205 -85l-5 -12l-242 35q-11 5 -11 15q0 17 18.5 34t34.5 13z" />
    <glyph glyph-name="aacute" unicode="&#xe1;" 
d="M373 -6l-43 43q-24 24 -39 64q-1 -1 -25 -26q-73 -76 -82 -76q-52 0 -97 76q-39 66 -43 124q-4 61 48 130q23 31 90 91q11 10 48.5 33.5t45.5 23.5q15 0 79 -36q60 -34 77 -49q-5 -11 -31 -36q-28 -28 -36 -42q-18 -31 -18 -77q0 -69 35 -120q27 -39 60 -52
q-59 -56 -68 -67q0 -2 -1 -4zM286 120v1q-3 18 -1 42q7 99 70 169l-146 79q-42 -29 -66 -82q-18 -40 -18 -71q0 -41 45 -101q47 -63 83 -63q11 0 34 26h-1zM338 607l-205 -85l5 -12l242 35q11 5 11 15q0 16 -19.5 33.5t-33.5 13.5z" />
    <glyph glyph-name="acircumflex" unicode="&#xe2;" 
d="M373 -6l-43 43q-24 24 -39 64q-1 -1 -25 -26q-73 -76 -82 -76q-52 0 -97 76q-39 66 -43 124q-4 61 48 130q23 31 90 91q11 10 48.5 33.5t45.5 23.5q15 0 79 -36q60 -34 77 -49q-5 -11 -31 -36q-28 -28 -36 -42q-18 -31 -18 -77q0 -69 35 -120q27 -39 60 -52
q-59 -56 -68 -67q0 -2 -1 -4zM286 120v1q-3 18 -1 42q7 99 70 169l-146 79q-42 -29 -66 -82q-18 -40 -18 -71q0 -41 45 -101q47 -63 83 -63q11 0 34 26h-1zM118 514l130 74q4 0 143 -72l-9 -9l-136 28l-120 -29z" />
    <glyph glyph-name="atilde" unicode="&#xe3;" 
d="M373 -6l-43 43q-24 24 -39 64q-1 -1 -25 -26q-73 -76 -82 -76q-52 0 -97 76q-39 66 -43 124q-4 61 48 130q23 31 90 91q11 10 48.5 33.5t45.5 23.5q15 0 79 -36q60 -34 77 -49q-5 -11 -31 -36q-28 -28 -36 -42q-18 -31 -18 -77q0 -69 35 -120q27 -39 60 -52
q-59 -56 -68 -67q0 -2 -1 -4zM286 120v1q-3 18 -1 42q7 99 70 169l-146 79q-42 -29 -66 -82q-18 -40 -18 -71q0 -41 45 -101q47 -63 83 -63q11 0 34 26h-1zM109 524l7 -9q22 15 43 19q13 3 46 4q13 -8 92 -31q46 7 100 58l-9 13q-22 -22 -59 -22q-19 0 -57 15t-64 15
q-40 0 -99 -62z" />
    <glyph glyph-name="adieresis" unicode="&#xe4;" 
d="M373 -6l-43 43q-24 24 -39 64q-1 -1 -25 -26q-73 -76 -82 -76q-52 0 -97 76q-39 66 -43 124q-4 61 48 130q23 31 90 91q11 10 48.5 33.5t45.5 23.5q15 0 79 -36q60 -34 77 -49q-5 -11 -31 -36q-28 -28 -36 -42q-18 -31 -18 -77q0 -69 35 -120q27 -39 60 -52
q-59 -56 -68 -67q0 -2 -1 -4zM286 120v1q-3 18 -1 42q7 99 70 169l-146 79q-42 -29 -66 -82q-18 -40 -18 -71q0 -41 45 -101q47 -63 83 -63q11 0 34 26h-1zM304 553q0 17 11.5 29t27.5 12q17 0 28.5 -12t11.5 -29t-11.5 -29t-27.5 -12q-17 0 -28.5 12t-11.5 29zM160 553
q0 17 11.5 29t27.5 12q17 0 28.5 -12t11.5 -29t-11.5 -29t-28.5 -12q-16 0 -27.5 12t-11.5 29z" />
    <glyph glyph-name="aring" unicode="&#xe5;" 
d="M373 -6l-43 43q-24 24 -39 64q-1 -1 -25 -26q-73 -76 -82 -76q-52 0 -97 76q-39 66 -43 124q-4 61 48 130q23 31 90 91q11 10 48.5 33.5t45.5 23.5q15 0 79 -36q60 -34 77 -49q-5 -11 -31 -36q-28 -28 -36 -42q-18 -31 -18 -77q0 -69 35 -120q27 -39 60 -52
q-59 -56 -68 -67q0 -2 -1 -4zM286 120v1q-3 18 -1 42q7 99 70 169l-146 79q-42 -29 -66 -82q-18 -40 -18 -71q0 -41 45 -101q47 -63 83 -63q11 0 34 26h-1zM260 643q26 0 44.5 -18.5t18.5 -44.5t-18.5 -44.5t-44.5 -18.5t-44 18.5t-18 44.5t18 44.5t44 18.5zM260 618
q-15 0 -26 -11t-11 -27t11 -27t26 -11q16 0 27 11t11 27t-11 27t-27 11z" />
    <glyph glyph-name="ae" unicode="&#xe6;" horiz-adv-x="702" 
d="M318 126q-16 -15 -52 -51q-75 -76 -82 -76q-52 0 -97 76q-39 66 -43 124q-4 61 48 130q23 31 90 91q11 10 48.5 33.5t45.5 23.5q17 0 71 -30q46 -26 69 -43q14 14 26 22q23 15 76 50q64 -36 96 -69q41 -44 52 -104l-257 -135q56 -81 130 -81q35 0 68.5 28t40.5 62
q25 -1 20 -15q-37 -68 -124 -130q-17 -12 -33 -31q-8 -9 -21 -5q-124 3 -172 130zM578 297q-60 96 -124 96q-12 0 -26 -8q-16 -15 -51 -54q-13 -22 -13 -45q0 -53 28 -90zM352 334l-143 77q-42 -29 -66 -82q-18 -40 -18 -71q0 -41 45 -101q47 -63 83 -63q10 0 57 47
q-7 36 -6 49q2 28 6 66q3 17 23 48q4 8 19 30z" />
    <glyph glyph-name="ccedilla" unicode="&#xe7;" horiz-adv-x="394" 
d="M295 -110q0 -23 -20 -38q-13 -7 -39 -23q-43 -5 -79 4l6 21q11 -3 27 -3q61 0 61 46q0 37 -42 37q-16 0 -46 -15l23 75q-62 16 -112.5 89t-46.5 138q8 120 135 205q23 15 76 50q48 -21 98 -64q37 -32 41 -39l-64 -64q-97 84 -139 84q-31 0 -60.5 -37.5t-29.5 -69.5
q0 -55 33 -101q70 -98 132 -98q35 0 68.5 28t40.5 62q25 -1 20 -15q-38 -70 -124 -130q-4 -3 -22 -26q-13 -17 -25 -15l-12 -35q28 5 21 5q30 0 54.5 -21t24.5 -50z" />
    <glyph glyph-name="egrave" unicode="&#xe8;" horiz-adv-x="415" 
d="M388 162q-37 -68 -124 -130q-17 -12 -33 -31q-9 -10 -15 -10q-52 1 -121 76q-73 79 -68 154q7 104 135 205q23 15 76 50q64 -36 96 -69q41 -44 52 -104l-257 -135q56 -81 130 -81q35 0 68.5 28t40.5 62q25 -1 20 -15zM112 196l186 101q-60 96 -124 96q-31 0 -60.5 -37.5
t-29.5 -69.5q0 -53 28 -90zM141 607l205 -85l-5 -12l-242 35q-11 5 -11 15q0 17 18.5 34t34.5 13z" />
    <glyph glyph-name="eacute" unicode="&#xe9;" horiz-adv-x="415" 
d="M388 162q-37 -68 -124 -130q-17 -12 -33 -31q-9 -10 -15 -10q-52 1 -121 76q-73 79 -68 154q7 104 135 205q23 15 76 50q64 -36 96 -69q41 -44 52 -104l-257 -135q56 -81 130 -81q35 0 68.5 28t40.5 62q25 -1 20 -15zM112 196l186 101q-60 96 -124 96q-31 0 -60.5 -37.5
t-29.5 -69.5q0 -53 28 -90zM308 607l-205 -85l5 -12l242 35q11 5 11 15q0 16 -19.5 33.5t-33.5 13.5z" />
    <glyph glyph-name="ecircumflex" unicode="&#xea;" horiz-adv-x="415" 
d="M388 162q-37 -68 -124 -130q-17 -12 -33 -31q-9 -10 -15 -10q-52 1 -121 76q-73 79 -68 154q7 104 135 205q23 15 76 50q64 -36 96 -69q41 -44 52 -104l-257 -135q56 -81 130 -81q35 0 68.5 28t40.5 62q25 -1 20 -15zM112 196l186 101q-60 96 -124 96q-31 0 -60.5 -37.5
t-29.5 -69.5q0 -53 28 -90zM88 514l130 74q4 0 143 -72l-9 -9l-136 28l-120 -29z" />
    <glyph glyph-name="edieresis" unicode="&#xeb;" horiz-adv-x="415" 
d="M388 162q-37 -68 -124 -130q-17 -12 -33 -31q-9 -10 -15 -10q-52 1 -121 76q-73 79 -68 154q7 104 135 205q23 15 76 50q64 -36 96 -69q41 -44 52 -104l-257 -135q56 -81 130 -81q35 0 68.5 28t40.5 62q25 -1 20 -15zM112 196l186 101q-60 96 -124 96q-31 0 -60.5 -37.5
t-29.5 -69.5q0 -53 28 -90zM264 553q0 17 11.5 29t27.5 12q17 0 28.5 -12t11.5 -29t-11.5 -29t-27.5 -12q-17 0 -28.5 12t-11.5 29zM120 553q0 17 11.5 29t27.5 12q17 0 28.5 -12t11.5 -29t-11.5 -29t-28.5 -12q-16 0 -27.5 12t-11.5 29z" />
    <glyph glyph-name="igrave" unicode="&#xec;" horiz-adv-x="221" 
d="M10 390l2 2q24 22 74 69l90 -75q-19 -14 -26 -22q-18 -20 -18 -44l-1 -207q0 -10 50 -52q5 4 19 15q6 6 10 -11q-70 -56 -106 -73l-94 80q8 8 39 42v215q-6 31 -39 61zM41 607l155 -85l-5 -12l-192 35q-11 5 -11 15q0 17 18.5 34t34.5 13z" />
    <glyph glyph-name="iacute" unicode="&#xed;" horiz-adv-x="221" 
d="M10 390l2 2q24 22 74 69l90 -75q-19 -14 -26 -22q-18 -20 -18 -44l-1 -207q0 -10 50 -52q5 4 19 15q6 6 10 -11q-70 -56 -106 -73l-94 80q8 8 39 42v215q-6 31 -39 61zM148 607l-165 -85l5 -12l202 35q11 5 11 15q0 16 -19.5 33.5t-33.5 13.5z" />
    <glyph glyph-name="icircumflex" unicode="&#xee;" horiz-adv-x="221" 
d="M10 390l2 2q24 22 74 69l90 -75q-19 -14 -26 -22q-18 -20 -18 -44l-1 -207q0 -10 50 -52q5 4 19 15q6 6 10 -11q-70 -56 -106 -73l-94 80q8 8 39 42v215q-6 31 -39 61zM-22 514l110 74q3 0 123 -72l-9 -9l-116 28l-100 -29z" />
    <glyph glyph-name="idieresis" unicode="&#xef;" horiz-adv-x="221" 
d="M10 390l2 2q24 22 74 69l90 -75q-19 -14 -26 -22q-18 -20 -18 -44l-1 -207q0 -10 50 -52q5 4 19 15q6 6 10 -11q-70 -56 -106 -73l-94 80q8 8 39 42v215q-6 31 -39 61zM124 553q0 17 11.5 29t27.5 12q17 0 28.5 -12t11.5 -29t-11.5 -29t-27.5 -12q-17 0 -28.5 12
t-11.5 29zM-20 553q0 17 11.5 29t27.5 12q17 0 28.5 -12t11.5 -29t-11.5 -29t-28.5 -12q-16 0 -27.5 12t-11.5 29z" />
    <glyph glyph-name="eth" unicode="&#xf0;" horiz-adv-x="460" 
d="M268 329q-26 25 -85 75q-30 2 -63 -53q-29 -48 -30 -78q-2 -60 53.5 -129t114.5 -71q33 -1 66 40q31 38 32 72q2 52 -27 89q-3 4 -61 55zM33 439l65 51q-23 32 -22 64q2 47 36.5 79.5t80.5 31.5l11 -4l-13 -8q-31 -19 -33 -65q-1 -19 13 -41l75 58l14 -18l-75 -58
q16 -17 108 -88q61 -47 88 -80q44 -53 43 -107q-2 -65 -83 -161q-83 -99 -145 -97q-59 2 -120 83q-57 78 -59 140q-1 57 44 121q44 61 98 84q-9 9 -28 29q-5 5 -18 19l-66 -51z" />
    <glyph glyph-name="ntilde" unicode="&#xf1;" horiz-adv-x="417" 
d="M319 48q-10 -9 -38 -34l-9 -6q-5 -4 -13 -9v348q0 22 -5 31t-24 16l-87 -54v-302q0 -17 -28 -27q-15 -4 -47 -14q-4 -3 -14 -6v336q-5 18 -11 28q-14 29 -35 32v5q3 2 20 17l28 28q32 31 37 34q10 0 33 -36q13 -19 14 -35q0 -9 7 -27q30 10 144 101q22 -25 87 -91
q-32 -23 -32 -47v-177q0 -52 36 -52q9 0 19 3q1 -1 1 -4q-21 -15 -83 -58zM49 524l7 -9q22 15 43 19q13 3 46 4q13 -8 92 -31q46 7 100 58l-9 13q-22 -22 -59 -22q-19 0 -57 15t-64 15q-40 0 -99 -62z" />
    <glyph glyph-name="ograve" unicode="&#xf2;" horiz-adv-x="439" 
d="M245 18q-6 -4 -24 -20q-6 -5 -10 -6q-45 0 -114 75q-75 81 -70 154q7 109 136 209q22 14 75 46q159 -90 159 -226q0 -126 -152 -232zM174 393q-31 0 -60.5 -37.5t-29.5 -69.5q0 -60 60.5 -132t119.5 -72q32 0 56 33q23 30 23 63q0 56 -56 133q-60 82 -113 82zM141 607
l205 -85l-5 -12l-242 35q-11 5 -11 15q0 17 18.5 34t34.5 13z" />
    <glyph glyph-name="oacute" unicode="&#xf3;" horiz-adv-x="439" 
d="M245 18q-6 -4 -24 -20q-6 -5 -10 -6q-45 0 -114 75q-75 81 -70 154q7 109 136 209q22 14 75 46q159 -90 159 -226q0 -126 -152 -232zM174 393q-31 0 -60.5 -37.5t-29.5 -69.5q0 -60 60.5 -132t119.5 -72q32 0 56 33q23 30 23 63q0 56 -56 133q-60 82 -113 82zM298 607
l-205 -85l5 -12l242 35q11 5 11 15q0 16 -19.5 33.5t-33.5 13.5z" />
    <glyph glyph-name="ocircumflex" unicode="&#xf4;" horiz-adv-x="439" 
d="M245 18q-6 -4 -24 -20q-6 -5 -10 -6q-45 0 -114 75q-75 81 -70 154q7 109 136 209q22 14 75 46q159 -90 159 -226q0 -126 -152 -232zM174 393q-31 0 -60.5 -37.5t-29.5 -69.5q0 -60 60.5 -132t119.5 -72q32 0 56 33q23 30 23 63q0 56 -56 133q-60 82 -113 82zM88 514
l130 74q4 0 143 -72l-9 -9l-136 28l-120 -29z" />
    <glyph glyph-name="otilde" unicode="&#xf5;" horiz-adv-x="439" 
d="M245 18q-6 -4 -24 -20q-6 -5 -10 -6q-45 0 -114 75q-75 81 -70 154q7 109 136 209q22 14 75 46q159 -90 159 -226q0 -126 -152 -232zM174 393q-31 0 -60.5 -37.5t-29.5 -69.5q0 -60 60.5 -132t119.5 -72q32 0 56 33q23 30 23 63q0 56 -56 133q-60 82 -113 82zM79 524
l7 -9q22 15 43 19q13 3 46 4q13 -8 92 -31q46 7 100 58l-9 13q-22 -22 -59 -22q-19 0 -57 15t-64 15q-40 0 -99 -62z" />
    <glyph glyph-name="odieresis" unicode="&#xf6;" horiz-adv-x="439" 
d="M245 18q-6 -4 -24 -20q-6 -5 -10 -6q-45 0 -114 75q-75 81 -70 154q7 109 136 209q22 14 75 46q159 -90 159 -226q0 -126 -152 -232zM174 393q-31 0 -60.5 -37.5t-29.5 -69.5q0 -60 60.5 -132t119.5 -72q32 0 56 33q23 30 23 63q0 56 -56 133q-60 82 -113 82zM264 553
q0 17 11.5 29t27.5 12q17 0 28.5 -12t11.5 -29t-11.5 -29t-27.5 -12q-17 0 -28.5 12t-11.5 29zM120 553q0 17 11.5 29t27.5 12q17 0 28.5 -12t11.5 -29t-11.5 -29t-28.5 -12q-16 0 -27.5 12t-11.5 29z" />
    <glyph glyph-name="divide" unicode="&#xf7;" horiz-adv-x="667" 
d="M332 587q23 0 38.5 -16t15.5 -39q0 -22 -16 -38t-38 -16q-23 0 -39 15.5t-16 38.5t15.5 39t39.5 16zM63 371h540v-86h-540v86zM332 182q23 0 39.5 -16t16.5 -39t-16.5 -39t-39.5 -16t-39 16t-16 39t16 39t39 16z" />
    <glyph glyph-name="oslash" unicode="&#xf8;" horiz-adv-x="439" 
d="M136 165l122 180q-45 48 -84 48q-31 0 -60.5 -37.5t-29.5 -69.5q0 -57 52 -121zM274 327l-122 -180q62 -65 112 -65q32 0 56 33q23 30 23 63q0 64 -69 149zM363 460l-34 -51q68 -68 68 -159q0 -126 -152 -232q-6 -4 -24 -20q-6 -5 -10 -6q-45 0 -113 74l-52 -78l-20 15
l55 82q-58 72 -54 136q8 109 136 209q22 14 75 46q45 -26 74 -51l31 47z" />
    <glyph glyph-name="ugrave" unicode="&#xf9;" horiz-adv-x="430" 
d="M6 404v11q10 7 53 29t46 22q17 0 36 -28.5t19 -46.5l4 -278q0 -12 17.5 -30t28.5 -18q10 0 40 23q17 13 36 32v306l86 38v-333q0 -25 13 -39q0 -1 27 -22q3 -4 -19.5 -42.5t-27.5 -38.5q-31 0 -56 36q-22 31 -28 65l-141 -105q-35 36 -109 100q40 20 44 48q0 20 2 51
q1 16 1 166q0 19 -20 37.5t-39 18.5q-5 0 -13 -2zM111 607l205 -85l-5 -12l-242 35q-11 5 -11 15q0 17 18.5 34t34.5 13z" />
    <glyph glyph-name="uacute" unicode="&#xfa;" horiz-adv-x="430" 
d="M6 404v11q10 7 53 29t46 22q17 0 36 -28.5t19 -46.5l4 -278q0 -12 17.5 -30t28.5 -18q10 0 40 23q17 13 36 32v306l86 38v-333q0 -25 13 -39q0 -1 27 -22q3 -4 -19.5 -42.5t-27.5 -38.5q-31 0 -56 36q-22 31 -28 65l-141 -105q-35 36 -109 100q40 20 44 48q0 20 2 51
q1 16 1 166q0 19 -20 37.5t-39 18.5q-5 0 -13 -2zM278 607l-205 -85l5 -12l242 35q11 5 11 15q0 16 -19.5 33.5t-33.5 13.5z" />
    <glyph glyph-name="ucircumflex" unicode="&#xfb;" horiz-adv-x="430" 
d="M6 404v11q10 7 53 29t46 22q17 0 36 -28.5t19 -46.5l4 -278q0 -12 17.5 -30t28.5 -18q10 0 40 23q17 13 36 32v306l86 38v-333q0 -25 13 -39q0 -1 27 -22q3 -4 -19.5 -42.5t-27.5 -38.5q-31 0 -56 36q-22 31 -28 65l-141 -105q-35 36 -109 100q40 20 44 48q0 20 2 51
q1 16 1 166q0 19 -20 37.5t-39 18.5q-5 0 -13 -2zM68 514l130 74q4 0 143 -72l-9 -9l-136 28l-120 -29z" />
    <glyph glyph-name="udieresis" unicode="&#xfc;" horiz-adv-x="430" 
d="M6 404v11q10 7 53 29t46 22q17 0 36 -28.5t19 -46.5l4 -278q0 -12 17.5 -30t28.5 -18q10 0 40 23q17 13 36 32v306l86 38v-333q0 -25 13 -39q0 -1 27 -22q3 -4 -19.5 -42.5t-27.5 -38.5q-31 0 -56 36q-22 31 -28 65l-141 -105q-35 36 -109 100q40 20 44 48q0 20 2 51
q1 16 1 166q0 19 -20 37.5t-39 18.5q-5 0 -13 -2zM244 553q0 17 11.5 29t27.5 12q17 0 28.5 -12t11.5 -29t-11.5 -29t-27.5 -12q-17 0 -28.5 12t-11.5 29zM100 553q0 17 11.5 29t27.5 12q17 0 28.5 -12t11.5 -29t-11.5 -29t-28.5 -12q-16 0 -27.5 12t-11.5 29z" />
    <glyph glyph-name="yacute" unicode="&#xfd;" horiz-adv-x="432" 
d="M320 157q-38 -64 -119 -208q-12 -23 -45 -82q-6 -10 -14 -18q-6 -2 -9 -2q-7 0 -17 7q14 17 42 59q31 48 31 58q-1 5 -11 34l-16 48q-19 60 -73 213q-26 68 -84 123q4 9 32 44t32 35q9 0 34 -29q23 -24 31 -38l14 -21q2 -1 0 -12q0 -4 6 -6q9 11 24 35q47 74 120 77
q41 2 80.5 -37.5t34.5 -80.5q-5 -42 -93 -199zM245 412q-18 0 -46.5 -31t-28.5 -50q0 -42 28 -122l47 -135q19 26 65 116q53 104 53 125q0 34 -46 67q-42 30 -72 30zM288 617l-205 -85l5 -12l242 35q11 5 11 15q0 16 -19.5 33.5t-33.5 13.5z" />
    <glyph glyph-name="thorn" unicode="&#xfe;" horiz-adv-x="510" 
d="M448 206q-11 -39 -78 -123q-70 -88 -102 -88q-67 14 -71 16t-55 33q-2 -17 -6 -41q-7 -33 -13 -105q-6 -66 -24 -101h-4q-11 36 -18 89q-7 46 -16 138q-4 26 -12 47q-16 8 -40 21q30 23 38.5 38t8.5 51l-1 138q1 57 0 173q-17 35 -36 44q-9 4 -13 8q-1 -1 -1 0
q41 41 87 80q51 -30 54 -63q-2 -143 -1 -248l193 131q73 -60 94 -90q24 -35 24 -90q0 -28 -8 -58zM363 279q-4 13 -24 38q-27 34 -52 34q-49 0 -91 -20q-51 -23 -51 -60v-121q25 -17 106 -51q75 -31 82 -31q19 0 29 59q8 45 8 76q0 34 -7 76z" />
    <glyph glyph-name="ydieresis" unicode="&#xff;" horiz-adv-x="432" 
d="M320 157q-38 -64 -119 -208q-12 -23 -45 -82q-6 -10 -14 -18q-6 -2 -9 -2q-7 0 -17 7q14 17 42 59q31 48 31 58q-1 5 -11 34l-16 48q-19 60 -73 213q-26 68 -84 123q4 9 32 44t32 35q9 0 34 -29q23 -24 31 -38l14 -21q2 -1 0 -12q0 -4 6 -6q9 11 24 35q47 74 120 77
q41 2 80.5 -37.5t34.5 -80.5q-5 -42 -93 -199zM245 412q-18 0 -46.5 -31t-28.5 -50q0 -42 28 -122l47 -135q19 26 65 116q53 104 53 125q0 34 -46 67q-42 30 -72 30zM254 553q0 17 11.5 29t27.5 12q17 0 28.5 -12t11.5 -29t-11.5 -29t-27.5 -12q-17 0 -28.5 12t-11.5 29z
M110 553q0 17 11.5 29t27.5 12q17 0 28.5 -12t11.5 -29t-11.5 -29t-28.5 -12q-16 0 -27.5 12t-11.5 29z" />
    <glyph glyph-name="dotlessi" unicode="&#x131;" horiz-adv-x="221" 
d="M10 390l2 2q24 22 74 69l90 -75q-19 -14 -26 -22q-18 -20 -18 -44l-1 -207q0 -10 50 -52q5 4 19 15q6 6 10 -11q-70 -56 -106 -73l-94 80q8 8 39 42v215q-6 31 -39 61z" />
    <glyph glyph-name="Lslash" unicode="&#x141;" horiz-adv-x="539" 
d="M23 236l102 59q1 52 1 244q0 32 -12 45q22 20 66 58q58 48 84 43q3 -3 2 -10l-18 -15q-18 -19 -18 -36q-6 -39 -6 -244v-15q-1 -7 -1 -14l31 18q3 17 3 27q0 21 -2 75q-2 48 -1 76q1 43 7 72q5 21 44 53q32 26 60 38l4 -8l-16 -21q-3 -4 -3 -13q-1 -6 0 -18q1 -6 1 -16
q1 -42 1 -121q0 -54 -8 -92l97 56v-44l-117 -67q-20 -43 -79 -115q-13 -16 -25 -21l6 15q2 4 19 75l-30 -17q-19 -84 -81 -132q-8 -26 -8 -37q0 -6 2 -12q56 -19 151 -31q87 -10 155 -8q45 1 86 29q-92 -114 -174 -116q-73 -2 -172 16q-57 12 -171 34l-3 5q85 77 94 90
q27 36 30 110l-101 -58v43z" />
    <glyph glyph-name="lslash" unicode="&#x142;" horiz-adv-x="229" 
d="M3 263l57 35v249q-1 10 -8 39q-10 43 -42 57v8q21 -7 54 -4q16 2 63 22q44 18 61 18l38 -1v-10q-2 -2 -5 -2l-12 -3q-56 -14 -63 -95q-1 -12 -1 -34v-194l74 45v-38l-74 -44v-148q-2 -19 10.5 -44t26.5 -25q7 0 21 14t15 14q3 0 8 -11q-11 -7 -57 -55.5t-57 -63.5
q-33 44 -93 102l22 28q17 23 20 38l-1 100l-57 -35v38z" />
    <glyph glyph-name="OE" unicode="&#x152;" horiz-adv-x="1146" 
d="M571 163q-4 -5 -92 -92q-45 -44 -80 -61q-41 -20 -98 -20q-121 0 -214 102q-90 99 -90 221q0 145 133 263q127 112 276 114q16 -26 83 -58q73 -36 94 -57q51 -51 61 -144q30 26 87 59v91q22 20 68 61q38 33 75 51q28 -8 83 -23q51 -14 87 -14q26 0 47 7q-2 -41 -40 -67
q-34 -23 -77 -23q-22 0 -102 21v-196l94 72q47 -47 83 -86l-91 -87l-86 79l1 -37q1 -31 -29 -103q8 34 8 74v290l-25 6v-317q0 -41 -31 -94q-34 -59 -71 -59q77 -57 172 -57q104 0 210 78v-7q0 -76 -103 -124q-87 -40 -169 -35q-94 6 -164.5 51t-99.5 121zM646 351
q0 -3 -1 -14t-1 -18v-1q0 -117 73 -172q14 9 14 29v293q-70 -25 -85 -117zM542 315q0 169 -125 230q-2 1 -17 16q-11 11 -20 10q-4 -44 0 -268q0 -14 -12.5 -37t-25.5 -28q2 3 9 22q5 14 5 22q-6 246 0 299q0 7 -23 7q-11 -9 -11 -102q0 -30 2.5 -91t2.5 -91q0 -62 -35 -92
l-74 -50q2 14 9 49q6 30 6 48l1 263q1 29 40 73q0 6 -19 6q-87 0 -127 -73q-32 -58 -32 -152q0 -115 81 -208q84 -98 197 -95q52 1 85 12q41 13 65 102q18 67 18 128z" />
    <glyph glyph-name="oe" unicode="&#x153;" horiz-adv-x="748" 
d="M343 171q-7 20 -7 44q-17 55 -61 111q-53 67 -101 67q-31 0 -60.5 -37.5t-29.5 -69.5q0 -60 60.5 -132t119.5 -72q28 0 52 27.5t27 61.5zM698 162q-37 -68 -124 -130q-17 -12 -33 -31q-9 -10 -15 -10q-43 2 -97 51q-47 43 -70 89q-41 -62 -114 -113q-6 -4 -24 -20
q-6 -5 -10 -6q-45 0 -114 75q-75 81 -70 154q7 109 136 209q22 14 75 46q110 -62 143 -143q33 48 91 93q23 15 76 50q64 -36 96 -69q41 -44 52 -104l-257 -135q56 -81 130 -81q35 0 68.5 28t40.5 62q25 -1 20 -15zM422 196l186 101q-60 96 -124 96q-31 0 -60.5 -37.5
t-29.5 -69.5q1 -9 3 -30q4 -32 25 -60z" />
    <glyph glyph-name="Scaron" unicode="&#x160;" horiz-adv-x="565" 
d="M527 195q0 -80 -49 -144q-53 -71 -130 -71q-48 0 -140.5 24.5t-140.5 24.5q-18 0 -90 -24q43 57 79 83q47 33 108 33q51 0 121 -17q7 -2 118 -33q4 -2 8 -2q9 0 19 11q0 -24 -1 36t-1 70q1 146 -77 146q-17 0 -76 -75q-20 25 -74 91l-74 -74q-22 -6 -73 45
q-59 59 -62 123t61 151q66 91 128 91q57 0 132 -18l131 -31q13 -2 36 7t34 19l10 -3q-111 -111 -144 -111q-46 0 -134 26t-130 26q-16 0 -25 -22q-15 -34 -13 -65q3 -60 27 -101q31 -50 86 -50q15 0 49 31q29 26 42 45l70 -86q10 11 32 33q31 29 57 29q39 0 64 -43
q22 -37 22 -78v-97zM423 805l-149 -85q-2 0 -165 83l10 10l158 -32l137 33z" />
    <glyph glyph-name="scaron" unicode="&#x161;" horiz-adv-x="404" 
d="M252 38q-5 -3 -28 -30q-21 -23 -26 -22q-66 52 -173 75l84 94q-15 7 -41 32q-38 37 -39 73q-1 66 108 153q8 6 17 13q44 33 51 29q18 -8 62 -29q18 -13 55 -25l32 32q9 -6 12 -11q-6 -11 -53 -62q-43 -47 -43 -52q0 -2 22.5 -21t29.5 -24q49 -45 49 -92q0 -34 -44 -78
q-37 -37 -75 -55zM160 388q-24 0 -46.5 -22.5t-22.5 -46.5q0 -40 88 -88q5 -3 88 105q-65 52 -107 52zM207 230q-3 0 -42.5 -42t-44.5 -51q83 -42 129 -65q25 -4 44.5 13.5t19.5 42.5q0 27 -39.5 64.5t-66.5 37.5zM337 577l-130 -74q-3 0 -143 71l8 9l137 -28l120 29z" />
    <glyph glyph-name="Ydieresis" unicode="&#x178;" horiz-adv-x="547" 
d="M559 -160q-22 19 -43 27q-13 5 -45 9q-16 2 -24 2q-39 0 -89 -22q-76 -34 -86 -37q-40 -5 -69 -6q-46 -2 -77 18q-36 23 -32 67q1 15 58 109q55 91 53 106q-1 10 -184 499q-1 1 -2 1q-5 0 -23 -15l-6 16q14 14 41 37q43 37 56 38q28 2 43 -27q6 -12 17 -55
q9 -36 140 -358q40 56 96 206q51 137 47 141q-23 -15 -68 -18q-28 -2 -62 17.5t-45 19.5q-10 0 -18 -4q-16 -18 -36 -39q-4 -2 -5 -2q-2 0 -6 6t-8 7q-2 19 50 63.5t74 45.5q19 1 67.5 -17t85.5 -15q33 10 61 32q-26 -65 -77 -187q-94 -225 -130 -288q-20 -36 -148 -257
q-3 -5 -3 -11q0 -14 19 -24q-4 -6 -6 -6q0 -2 64 99q195 308 297 631q9 2 12 -3q2 -5 -1 -18q-37 -174 -176 -439q-125 -237 -172 -274q8 -7 23 -7q5 0 29 5q13 2 28 6q94 49 172 49q44 0 77 -33t33 -77q0 -8 -2 -18z" />
    <glyph glyph-name="Zcaron" unicode="&#x17d;" horiz-adv-x="562" 
d="M528 215q0 -117 -81 -210q-85 -97 -200 -97q-90 0 -161 40q-24 13 -51 49q-23 30 -29 45l114 95q16 -9 49 -51q29 -38 53 -47q-10 -14 -43 -39t-44 -43q9 -9 51 -16q34 -5 58 -5q82 0 133 63q46 59 46 143q0 93 -72 153q-67 56 -157 56q-24 0 -82 -14q-65 -16 -73 -31
l-18 18l283 250q-58 -2 -80 -2q-176 0 -210 70q47 36 115 100q0 -25 3 -39q10 -26 122 -26q25 0 54 1q139 6 193 28q7 0 7 -3v-11q-90 -77 -316 -262q23 -2 45 3q15 3 70 3q90 0 155.5 -65.5t65.5 -155.5zM423 815l-149 -85q-2 0 -165 83l10 10l158 -32l137 33z" />
    <glyph glyph-name="zcaron" unicode="&#x17e;" horiz-adv-x="318" 
d="M119 -146q-28 -3 -75 10q-55 15 -55 37q0 6 25 25q22 17 38 23q1 -10 11 -34q23 -38 68 -38q64 10 85 67q11 30 11 86q0 51 -20 90q-24 48 -71 48q-1 0 -23.5 -13.5t-27.5 -15.5q-10 -3 -40 -25l-11 13q7 0 24 11q13 11 48 49q67 71 67 94q0 8 -93 87l-61 -51l-6 7
l145 153q3 -2 6 -5q0 -1 -7.5 -13.5t-7.5 -20.5q0 -16 87 -82l35 17l6 -6q-26 -24 -57 -61q-45 -53 -39 -65q112 -45 112 -147q0 -89 -44 -157q-49 -75 -130 -83zM292 591l-130 -74q-3 0 -143 72l8 9l137 -28l120 29z" />
    <glyph glyph-name="longs" unicode="&#x17f;" horiz-adv-x="284" 
d="M130 -188l1 1l-4 -1h-11q-53 257 -57 562q-59 -3 -68 -2v5q39 23 63 81q7 16 30 100q17 60 40 87q32 37 91 37q12 0 44 -13q14 -5 48 -20l28 31l9 -6q-37 -84 -60 -123q-33 16 -46 22q-54 23 -79 23t-42 -21.5t-17 -47.5q0 -20 27 -50q2 -2 44 -41q3 -127 -8 -310
q-12 -200 -33 -314z" />
    <glyph glyph-name="florin" unicode="&#x192;" horiz-adv-x="488" 
d="M324 444l-98 -424q-3 -13 -3 -25q0 -30 23 -47l-6 -12q-67 -20 -141 -75l-92 92l14 13l31 -30l65 42l108 466h-46l13 55h46l27 117q88 53 130 84l87 -23l-34 -82l-84 21l-28 -117h77l-13 -55h-76z" />
    <glyph glyph-name="circumflex" unicode="&#x2c6;" 
d="M118 514l130 74q4 0 143 -72l-9 -9l-136 28l-120 -29z" />
    <glyph glyph-name="caron" unicode="&#x2c7;" 
d="M391 580l-130 -74q-3 0 -143 72l9 9l136 -28l120 29z" />
    <glyph glyph-name="breve" unicode="&#x2d8;" horiz-adv-x="417" 
d="M100 589q90 -38 126 -38q42 0 116 38l1 -23q-88 -57 -126 -57q-40 0 -117 57v23z" />
    <glyph glyph-name="dotaccent" unicode="&#x2d9;" horiz-adv-x="250" 
d="M99 550q0 18 12.5 31t29.5 13t29.5 -13t12.5 -31q0 -19 -12.5 -32t-29.5 -13t-29.5 13t-12.5 32z" />
    <glyph glyph-name="ring" unicode="&#x2da;" horiz-adv-x="270" 
d="M150 643q26 0 44.5 -18.5t18.5 -44.5t-18.5 -44.5t-44.5 -18.5t-44 18.5t-18 44.5t18 44.5t44 18.5zM150 618q-15 0 -26 -11t-11 -27t11 -27t26 -11q16 0 27 11t11 27t-11 27t-27 11z" />
    <glyph glyph-name="ogonek" unicode="&#x2db;" horiz-adv-x="322" 
d="M221 1q-33 -9 -51 -43.5t-18 -74.5q0 -24 12.5 -39.5t33.5 -15.5q26 0 46 32l17 -10q-17 -29 -22 -34q-17 -16 -50 -17q-39 -2 -61 24q-19 23 -19 57q0 109 107 141z" />
    <glyph glyph-name="tilde" unicode="&#x2dc;" horiz-adv-x="355" 
d="M59 524l7 -9q22 15 43 19q13 3 46 4q13 -8 92 -31q46 7 100 58l-9 13q-22 -22 -59 -22q-19 0 -57 15t-64 15q-40 0 -99 -62z" />
    <glyph glyph-name="hungarumlaut" unicode="&#x2dd;" horiz-adv-x="308" 
d="M245 631l-68 -118l4 -9l95 82q8 3 8 11q0 11 -12 23t-23 12zM159 631l-69 -118l4 -9l95 82q8 3 8 11q0 11 -12 23t-22 12z" />
    <glyph glyph-name="increment" unicode="&#x394;" horiz-adv-x="612" 
d="M599 0h-586l306 677zM483 40l-194 472l-215 -472h409z" />
    <glyph glyph-name="increment" unicode="&#x2206;" horiz-adv-x="612" 
d="M599 0h-586l306 677zM483 40l-194 472l-215 -472h409z" />
    <glyph glyph-name="Omega" unicode="&#x3a9;" horiz-adv-x="740" 
d="M28 153h17q3 -35 25 -51q15 -11 55 -11h132v33q-70 13 -131 70q-81 75 -81 195q0 131 100 212q93 76 227 76t225 -75q98 -80 98 -211q0 -100 -56 -170t-157 -97v-33h135q38 0 56 13.5t21 48.5h17v-153h-273l11 147q126 41 126 233q0 106 -49 178q-56 83 -157 83
q-118 0 -175 -117q-29 -60 -29 -137q0 -193 125 -240l11 -147h-273v153z" />
    <glyph glyph-name="Omega" unicode="&#x2126;" horiz-adv-x="740" 
d="M28 153h17q3 -35 25 -51q15 -11 55 -11h132v33q-70 13 -131 70q-81 75 -81 195q0 131 100 212q93 76 227 76t225 -75q98 -80 98 -211q0 -100 -56 -170t-157 -97v-33h135q38 0 56 13.5t21 48.5h17v-153h-273l11 147q126 41 126 233q0 106 -49 178q-56 83 -157 83
q-118 0 -175 -117q-29 -60 -29 -137q0 -193 125 -240l11 -147h-273v153z" />
    <glyph glyph-name="pi" unicode="&#x3c0;" horiz-adv-x="531" 
d="M491 447v-71h-113q-19 -114 -19 -224q0 -84 61 -84q48 0 54 54h17q-16 -136 -100 -136q-86 0 -86 169q0 34 6 100q8 91 13 121h-115l-11 -149q-7 -93 -31 -180q-17 -61 -53 -61q-18 0 -31 11.5t-13 29.5q0 12 5 25q43 72 45 77q15 31 23 93q1 11 12 154h-14
q-38 0 -62 -18q-17 -13 -40 -51h-18q29 108 86 131q23 9 73 9h311z" />
    <glyph glyph-name="endash" unicode="&#x2013;" horiz-adv-x="313" 
d="M5 296q-1 -3 -2 -21t0 -19h292q2 3 3 20q1 18 -1 20h-292z" />
    <glyph glyph-name="emdash" unicode="&#x2014;" horiz-adv-x="609" 
d="M5 296q-1 -3 -2 -21t0 -19q118 1 298 1h297q3 4 2 20q-1 17 -3 19h-592z" />
    <glyph glyph-name="quoteleft" unicode="&#x2018;" horiz-adv-x="204" 
d="M95 532q20 5 42 29t27 44q-4 9 -32.5 36.5t-36.5 28.5q-36 -12 -74 -71q26 -82 108 -185q21 -4 26 20q-27 27 -36 43t-21 55h-3z" />
    <glyph glyph-name="quoteright" unicode="&#x2019;" horiz-adv-x="150" 
d="M67 532q-20 5 -42 29t-27 44q4 10 31.5 36.5t37.5 28.5q36 -12 74 -71q-26 -82 -108 -185q-21 -4 -26 20q40 40 57 98h3z" />
    <glyph glyph-name="quotesinglbase" unicode="&#x201a;" horiz-adv-x="196" 
d="M97 12q-20 5 -42 29t-27 44q4 10 31.5 36.5t37.5 28.5q36 -12 74 -71q-26 -82 -108 -185q-21 -4 -26 20q40 40 57 98h3z" />
    <glyph glyph-name="quotedblleft" unicode="&#x201c;" horiz-adv-x="374" 
d="M265 532q20 5 42 29t27 44q-4 9 -32.5 36.5t-36.5 28.5q-36 -12 -74 -71q26 -82 108 -185q21 -4 26 20q-27 27 -36 43t-21 55h-3zM95 532q20 5 42 29t27 44q-4 9 -32.5 36.5t-36.5 28.5q-36 -12 -74 -71q26 -82 108 -185q21 -4 26 20q-27 27 -36 43t-21 55h-3z" />
    <glyph glyph-name="quotedblright" unicode="&#x201d;" horiz-adv-x="376" 
d="M267 532q-20 5 -42 29t-27 44q4 10 31.5 36.5t37.5 28.5q36 -12 74 -71q-26 -82 -108 -185q-21 -4 -26 20q40 40 57 98h3zM97 532q-20 5 -42 29t-27 44q4 10 31.5 36.5t37.5 28.5q36 -12 74 -71q-26 -82 -108 -185q-21 -4 -26 20q40 40 57 98h3z" />
    <glyph glyph-name="quotedblbase" unicode="&#x201e;" horiz-adv-x="372" 
d="M267 22q-20 5 -42 29t-27 44q4 10 31.5 36.5t37.5 28.5q36 -12 74 -71q-26 -82 -108 -185q-21 -4 -26 20q40 40 57 98h3zM97 22q-20 5 -42 29t-27 44q4 10 31.5 36.5t37.5 28.5q36 -12 74 -71q-26 -82 -108 -185q-21 -4 -26 20q40 40 57 98h3z" />
    <glyph glyph-name="dagger" unicode="&#x2020;" horiz-adv-x="510" 
d="M414 380q-62 57 -145 62q1 -84 65 -141q-66 -150 -66 -442q0 -13 1 -24h-26q-3 203 -19 303q-12 77 -47 163q63 56 67 141q-73 -1 -147 -63l-72 76l72 73q70 -54 146 -61q-4 55 -20 98q-13 35 -45 83l78 73l78 -75q-62 -71 -65 -179q83 8 145 61l70 -74z" />
    <glyph glyph-name="daggerdbl" unicode="&#x2021;" horiz-adv-x="510" 
d="M413 380q-65 57 -145 62q4 -87 65 -161q-56 -62 -65 -166q73 5 145 62l72 -74l-72 -74q-67 52 -145 61q6 -110 67 -180l-80 -75l-78 75q57 70 64 180q-74 -6 -144 -61l-72 74l72 74q68 -59 144 -62q-7 97 -64 166q57 63 64 161q-78 -5 -144 -62l-72 74l72 75
q63 -57 144 -62q-8 107 -64 181l78 73l78 -73q-61 -65 -65 -181q77 4 145 62l70 -75z" />
    <glyph glyph-name="bullet" unicode="&#x2022;" horiz-adv-x="312" 
d="M162 149l-113 153l113 152l113 -152z" />
    <glyph glyph-name="ellipsis" unicode="&#x2026;" horiz-adv-x="691" 
d="M298 65q5 -20 27 -44t42 -29q11 8 31 25q33 30 40 48q-12 21 -34 41t-37 24q-10 -2 -37.5 -28.5t-31.5 -36.5zM528 65q5 -20 27 -44t42 -29q11 8 31 25q33 30 40 48q-12 21 -34 41t-37 24q-10 -2 -37.5 -28.5t-31.5 -36.5zM48 65q5 -20 27 -44t42 -29q11 8 31 25
q33 30 40 48q-12 21 -34 41t-37 24q-10 -2 -37.5 -28.5t-31.5 -36.5z" />
    <glyph glyph-name="perthousand" unicode="&#x2030;" horiz-adv-x="818" 
d="M534 165q0 -39 -31 -94q-32 -59 -66 -71q-11 -4 -28 -4q-49 0 -86 52q-34 47 -34 98q0 63 32 125q38 75 95 75q54 0 89 -66q29 -56 29 -115zM497 130q0 41 -41 95.5t-80 54.5q-20 0 -34.5 -22t-14.5 -50q0 -42 44 -93.5t85 -51.5q15 0 28 22t13 45zM253 415
q0 -38 -31 -94q-33 -59 -66 -71q-11 -4 -28 -4q-50 0 -87 51q-34 48 -34 99q0 63 32 126q39 74 96 74q54 0 89 -66q29 -56 29 -115zM216 380q0 40 -42 95t-80 55q-20 0 -34 -22t-14 -50q0 -42 44 -93.5t84 -51.5q15 0 28.5 22.5t13.5 44.5zM431 593l-275 -592q0 3 -38 3
l276 588zM800 165q0 -39 -31 -94q-32 -59 -66 -71q-12 -4 -28 -4q-50 0 -87 51q-34 48 -34 99q0 62 33 125q39 75 95 75q54 0 89 -66q29 -56 29 -115zM763 130q0 40 -41 93q-42 57 -80 57q-20 0 -34.5 -22t-14.5 -50q0 -42 44 -93.5t85 -51.5q15 0 28 22t13 45z" />
    <glyph glyph-name="guilsinglleft" unicode="&#x2039;" horiz-adv-x="268" 
d="M118 306l102 -250l-205 251l214 225z" />
    <glyph glyph-name="guilsinglright" unicode="&#x203a;" horiz-adv-x="283" 
d="M137 306l-102 -250l204 251l-213 225z" />
    <glyph glyph-name="fraction" unicode="&#x2044;" horiz-adv-x="125" 
d="M-131 -33h-64l445 712h63z" />
    <glyph glyph-name="trademark" unicode="&#x2122;" horiz-adv-x="402" 
d="M152 613l-8 -1q-16 54 -40 54q-11 -11 -11 -21l1 -109q0 -20 27 -20v-10h-88l1 10q24 5 24 20v105q0 25 -8 25q-31 0 -41 -52l-8 1q0 44 4 60h142q2 -23 5 -62zM362 669q-1 -1 -11.5 -3.5t-10.5 -7.5l1 -125q0 -18 22 -19v-7h-81l-1 7q22 7 22 19v109l-2 -1
q-8 -24 -21 -68q-5 -17 -22 -68h-10q-14 49 -45 137q0 1 -2 1v-106q0 -19 24 -24v-8h-64v9q26 3 26 34v105q0 11 -24 13v10h69l33 -98l31 97h66v-6z" />
    <glyph glyph-name="partialdiff" unicode="&#x2202;" horiz-adv-x="490" 
d="M452 350q6 56 6 91q0 84 -44.5 134t-124.5 50q-93 0 -147 -78h-23q35 71 71 104q47 43 115 43q104 0 153 -101q26 -54 26 -144q0 -174 -75 -310q-85 -154 -214 -154q-76 0 -121 44t-45 119q0 114 77 203q81 92 193 92q75 0 126 -52q13 -14 27 -41zM443 307
q-38 110 -140 110q-104 0 -160 -137q-31 -76 -31 -152q0 -50 22 -80q25 -35 73 -35q61 0 123 63q78 79 113 231z" />
    <glyph glyph-name="product" unicode="&#x220f;" horiz-adv-x="823" 
d="M605 702h-388v-707q0 -48 26 -64q19 -12 71 -12v-19h-292v19h18q42 0 60.5 17t18.5 59v651q0 42 -18.5 59t-60.5 17h-18v18h779v-18h-17q-42 0 -60.5 -17t-18.5 -59v-651q0 -48 25 -64q19 -12 71 -12v-19h-292v19h17q42 0 60.5 17t18.5 59v707z" />
    <glyph glyph-name="summation" unicode="&#x2211;" horiz-adv-x="708" 
d="M660 -100h-641v18l326 406l-326 399v18h624l13 -165h-20q-14 125 -121 125h-362l275 -335l-307 -380h399q86 0 121 46q18 23 30 74l20 -3z" />
    <glyph glyph-name="radical" unicode="&#x221a;" horiz-adv-x="552" 
d="M514 913h36l-152 -951l-242 498l-97 -44l-17 31l147 74l198 -402z" />
    <glyph glyph-name="infinity" unicode="&#x221e;" horiz-adv-x="708" 
d="M317 326q31 70 67 100q43 35 114 35q83 0 135 -59.5t52 -144.5q0 -76 -46 -138q-50 -67 -125 -67q-56 0 -99 46q-28 30 -65 94q-58 -114 -159 -114q-75 0 -121 52t-46 128q0 71 39 123q42 57 111 57q51 0 87 -33q27 -25 56 -79zM364 227q28 -61 57 -89q39 -40 95 -40
q66 0 105 47q36 45 36 112q0 63 -37 112q-40 54 -101 54q-66 0 -104 -72q-15 -28 -51 -124zM303 288q-46 105 -131 105q-55 0 -88 -38t-33 -96q0 -55 28 -96q32 -47 84 -47q47 0 82 42q24 29 58 130z" />
    <glyph glyph-name="integral" unicode="&#x222b;" horiz-adv-x="271" 
d="M96 437l9 284q3 101 38 151q26 38 68 38q23 0 42 -16t19 -37q0 -50 -45 -50q-18 0 -37 17q-11 10 -20 10q-19 0 -19 -31q0 -26 4 -71q18 -202 18 -324q0 -37 -6 -256q-3 -106 -15 -156q-26 -103 -96 -103q-57 0 -57 59q0 48 43 48q17 0 34.5 -15.5t23.5 -15.5q19 0 19 30
q0 41 -7 111q-9 83 -10 112q-8 163 -6 215z" />
    <glyph glyph-name="approxequal" unicode="&#x2248;" horiz-adv-x="667" 
d="M571 535h31q-2 -70 -34 -115q-37 -52 -103 -52q-38 0 -95 20q-19 8 -88.5 37.5t-101.5 29.5q-67 0 -84 -87h-31q11 168 133 168q30 0 53 -7q51 -15 134 -51q70 -30 102 -30q74 0 84 87zM571 287h31q-2 -69 -34 -115q-37 -53 -103 -53q-46 0 -184 58q-69 29 -101 29
q-69 0 -84 -86h-31q11 167 132 167q28 0 54 -7q46 -13 134 -51q46 -20 71 -26q12 -4 31 -4q74 0 84 88z" />
    <glyph glyph-name="approxequal" unicode="&#x22f2;" horiz-adv-x="667" 
d="M571 535h31q-2 -70 -34 -115q-37 -52 -103 -52q-38 0 -95 20q-19 8 -88.5 37.5t-101.5 29.5q-67 0 -84 -87h-31q11 168 133 168q30 0 53 -7q51 -15 134 -51q70 -30 102 -30q74 0 84 87zM571 287h31q-2 -69 -34 -115q-37 -53 -103 -53q-46 0 -184 58q-69 29 -101 29
q-69 0 -84 -86h-31q11 167 132 167q28 0 54 -7q46 -13 134 -51q46 -20 71 -26q12 -4 31 -4q74 0 84 88z" />
    <glyph glyph-name="notequal" unicode="&#x2260;" horiz-adv-x="667" 
d="M63 490h293l101 257h77l-99 -257h167v-91h-203l-55 -141h258v-90h-293l-102 -257h-77l101 257h-168v90h203l55 141h-258v91z" />
    <glyph glyph-name="lessequal" unicode="&#x2264;" horiz-adv-x="667" 
d="M603 161l-539 225v82l539 225v-97l-416 -169l416 -168v-98zM63 54h540v-91h-540v91z" />
    <glyph glyph-name="greaterequal" unicode="&#x2265;" horiz-adv-x="667" 
d="M64 693l539 -225v-82l-539 -225v97l415 169l-415 168v98zM63 54h540v-91h-540v91z" />
    <glyph glyph-name="lozenge" unicode="&#x25ca;" horiz-adv-x="494" 
d="M246 737l217 -374l-217 -384l-217 384zM246 607l-142 -244l142 -255l142 255z" />
    <glyph glyph-name="fi" unicode="&#xf001;" horiz-adv-x="476" 
d="M317 438q12 11 25 23l90 -75q-19 -14 -26 -22q-18 -20 -18 -44l-1 -207q0 -10 50 -52q5 4 19 15q6 6 10 -11q-70 -56 -106 -73l-94 80q8 8 39 42v215q-6 28 -19 42l-124 -1q1 -55 1 -106q0 -275 -33 -451h1l-1 -1v1l-3 -1h-11q-53 257 -57 562q-59 -3 -68 -2v5
q39 23 63 81q7 16 30 100q17 60 40 87q32 37 91 37q12 0 44 -13q14 -5 48 -20l28 31l9 -6q-37 -84 -60 -123q-33 16 -46 22q-54 23 -79 23t-42 -21.5t-17 -47.5q0 -29 22.5 -59.5t50.5 -30.5zM331 523v2q0 16 16 58t27 51q16 13 39 13q40 0 40 -27q0 -10 -54 -52.5
t-68 -44.5z" />
    <glyph glyph-name="fl" unicode="&#xf002;" horiz-adv-x="497" 
d="M378 -8q-33 44 -93 102l22 28q17 23 20 38l-1 387q-2 16 -14 57q-9 -18 -28 -53q-33 16 -46 22q-54 23 -79 23t-42 -21.5t-17 -47.5q0 -29 22 -58q23 -32 51 -32h87v-67h-98q1 -55 1 -106q0 -275 -33 -451h1l-1 -1v1l-3 -1h-11q-53 257 -57 562q-59 -3 -68 -2v5
q39 23 63 81q7 16 30 100q17 60 40 87q32 37 91 37q12 0 44 -13q14 -5 48 -20l28 31l9 -6l-12 -27q14 2 63 22q43 18 59 18l38 -1v-10q-2 -2 -5 -2l-12 -3q-57 -14 -63 -95q-1 -13 -1 -34v-379q-2 -19 10.5 -44t26.5 -25q7 0 21 14t15 14q3 0 8 -11q-11 -7 -57 -55.5
t-57 -63.5z" />
    <glyph glyph-name="glyph245" horiz-adv-x="500" 
d="M63 0v800h375v-800h-375zM125 63h250v675h-250v-675z" />
    <glyph glyph-name="DST" horiz-adv-x="1448" 
d="M1426 -39h-1404v839h1404v-839zM1401 562q0 30 -19 51t-46 21h-148q-37 0 -37 35v131h-57v-131q0 -88 116 -88q16 0 47.5 2t47.5 2q41 0 41 -19q0 -21 -40 -21q-16 0 -48.5 2.5t-48.5 2.5q-115 0 -115 -96v-322q0 -69 72 -86v56q-19 12 -19 42v302q0 45 35 45h146
q29 0 51 21t22 50zM1014 136v94q0 41 -26 64.5t-70 23.5h-246q-41 0 -41 37v95q0 43 41 43h244q24 0 43 -21h50q-13 76 -89 76h-246q-45 0 -71.5 -28.5t-26.5 -73.5v-89q0 -41 25.5 -66.5t66.5 -25.5h250q45 0 45 -45v-76q0 -45 -61 -45h-250q-22 0 -22 21q0 18 20 18h270
v53h-279q-29 0 -47 -21t-18 -52q0 -30 20 -50t50 -20h282q39 0 62.5 24.5t23.5 63.5zM507 800h-56l2 -682q0 -6 -6 -13.5t-12 -7.5q-19 0 -19 21v151q0 44 -31 75l-179 177q-19 19 -52 19t-56 -17q-26 -19 -26 -51v-330q0 -96 88 -96h82q64 0 77 72h-53q-12 -15 -25 -21h-81
q-35 0 -35 43v310q0 6 8 32q8 6 17 6q13 0 27 -14l95 -93q85 -84 87 -93q2 -46 2 -169q0 -33 20 -55t52 -22q30 0 51.5 22t21.5 52z" />
  </font>
</defs>
</svg>
